<svg width="300" height="300" viewBox="0 0 300 300" fill="none" xmlns="http://www.w3.org/2000/svg">
<circle cx="150" cy="150" r="149.5" fill="white" stroke="black"/>
<path d="M97.3441 112.649C97.2621 113.553 96.9146 114.412 96.3457 115.118C95.7768 115.823 95.0121 116.344 94.1481 116.614C93.2841 116.884 92.3597 116.891 91.4919 116.634C90.624 116.377 89.8515 115.868 89.2722 115.171C88.6929 114.473 88.3327 113.62 88.2372 112.717C88.1417 111.815 88.3152 110.904 88.7357 110.101C89.1562 109.297 89.8048 108.637 90.5996 108.203C91.3944 107.769 92.2996 107.581 93.2008 107.663C93.8 107.716 94.3828 107.887 94.9157 108.167C95.4487 108.446 95.9213 108.829 96.3063 109.292C96.6913 109.755 96.9813 110.291 97.1594 110.867C97.3375 111.443 97.4003 112.049 97.3441 112.649ZM98.2929 106.573C91.3453 99.5335 77.3422 97.9256 50.1284 109.716C50.0083 109.765 49.618 109.945 49.612 109.957C49.2476 110.185 48.9465 110.502 48.7366 110.878C48.5266 111.254 48.4147 111.676 48.4111 112.107C48.402 112.444 48.4613 112.778 48.5854 113.091C48.7094 113.404 48.8956 113.688 49.1327 113.926C49.3698 114.165 49.6527 114.352 49.9643 114.477C50.2758 114.602 50.6095 114.663 50.9451 114.654C51.3576 114.594 51.761 114.483 52.146 114.323C56.1452 112.854 75.835 107.476 86.1932 116.858C86.5295 117.135 86.8477 117.418 87.16 117.72C87.4722 118.021 87.7605 118.322 88.0127 118.683C97.3501 129.089 91.9578 148.829 90.4867 152.833C90.3201 153.217 90.2069 153.623 90.1504 154.038C90.1405 154.375 90.1992 154.71 90.3229 155.023C90.4466 155.337 90.6327 155.622 90.8698 155.861C91.1069 156.1 91.3901 156.288 91.7021 156.413C92.0141 156.539 92.3484 156.599 92.6844 156.591C93.1144 156.59 93.5369 156.478 93.912 156.267C94.2871 156.057 94.6024 155.753 94.8281 155.386C94.9192 155.221 94.9995 155.05 95.0683 154.875C106.874 127.601 105.306 113.552 98.2929 106.573Z" fill="#373E66"/>
<path d="M111.809 99.3827C111.705 100.557 111.256 101.673 110.52 102.592C109.783 103.51 108.791 104.189 107.67 104.542C106.548 104.895 105.348 104.907 104.22 104.576C103.092 104.246 102.087 103.587 101.332 102.683C100.577 101.78 100.106 100.672 99.9784 99.5007C99.851 98.3289 100.073 97.1456 100.616 96.1002C101.159 95.0548 101.998 94.1943 103.029 93.6274C104.059 93.0605 105.234 92.8127 106.405 92.9152C107.976 93.0559 109.428 93.8159 110.441 95.0283C111.454 96.2408 111.946 97.8067 111.809 99.3827Z" fill="#373E66"/>
<path d="M84.728 123.711C84.6733 124.327 84.4379 124.912 84.0513 125.394C83.6648 125.875 83.1446 126.231 82.5565 126.416C81.9683 126.601 81.3387 126.607 80.7473 126.433C80.1558 126.259 79.629 125.913 79.2335 125.439C78.838 124.965 78.5916 124.384 78.5254 123.77C78.4591 123.155 78.5761 122.535 78.8615 121.987C79.1469 121.439 79.5879 120.988 80.1287 120.692C80.6695 120.395 81.2858 120.266 81.8998 120.321C82.3078 120.356 82.7047 120.472 83.0679 120.662C83.4311 120.852 83.7533 121.112 84.0161 121.427C84.2788 121.742 84.477 122.106 84.5992 122.498C84.7214 122.89 84.7651 123.302 84.728 123.711Z" fill="#373E66"/>
<path d="M75.9612 131.624C75.9212 132.087 75.745 132.528 75.4549 132.891C75.1648 133.254 74.7738 133.522 74.3316 133.662C73.8893 133.801 73.4157 133.806 72.9706 133.676C72.5256 133.545 72.1292 133.285 71.8317 132.928C71.5342 132.572 71.349 132.135 71.2995 131.672C71.25 131.21 71.3385 130.743 71.5537 130.331C71.769 129.919 72.1013 129.581 72.5086 129.359C72.9158 129.136 73.3797 129.04 73.8415 129.083C74.4574 129.141 75.0255 129.44 75.4224 129.916C75.8193 130.392 76.0129 131.006 75.9612 131.624Z" fill="#373E66"/>
<path d="M193.007 106.886H187.41C187.013 106.915 186.643 107.101 186.381 107.402C186.119 107.703 185.986 108.095 186.011 108.494V127.288H166.652V108.494C166.676 108.095 166.543 107.703 166.281 107.402C166.019 107.101 165.65 106.915 165.252 106.886H159.596C159.203 106.926 158.839 107.114 158.579 107.412C158.319 107.711 158.183 108.098 158.197 108.494V156.067C158.183 156.463 158.319 156.85 158.579 157.148C158.839 157.447 159.203 157.635 159.596 157.675H165.252C165.65 157.645 166.019 157.46 166.281 157.159C166.543 156.858 166.676 156.466 166.652 156.067V136.466H186.011V156.055C185.986 156.453 186.119 156.846 186.381 157.147C186.643 157.448 187.013 157.633 187.41 157.663H193.007C193.4 157.623 193.763 157.435 194.023 157.136C194.283 156.838 194.42 156.451 194.406 156.055V108.482C194.417 108.088 194.279 107.704 194.019 107.408C193.759 107.112 193.398 106.925 193.007 106.886Z" fill="#373E66"/>
<path d="M152.252 106.886H127.488C127.091 106.915 126.721 107.101 126.459 107.402C126.197 107.703 126.064 108.095 126.089 108.494V156.067C126.064 156.466 126.197 156.858 126.459 157.159C126.721 157.46 127.091 157.645 127.488 157.675H133.084C133.478 157.635 133.841 157.447 134.101 157.148C134.361 156.85 134.498 156.463 134.484 156.067V136.472H149.273C149.663 136.431 150.024 136.244 150.282 135.948C150.54 135.652 150.678 135.269 150.667 134.876V128.974C150.681 128.578 150.544 128.191 150.284 127.893C150.024 127.594 149.661 127.406 149.267 127.366H134.478V115.997H152.252C152.646 115.966 153.012 115.782 153.272 115.484C153.533 115.186 153.666 114.797 153.645 114.401V108.494C153.67 108.096 153.538 107.704 153.277 107.404C153.016 107.103 152.648 106.917 152.252 106.886Z" fill="#373E66"/>
<path d="M210.955 106.886H205.292C204.899 106.926 204.535 107.114 204.276 107.412C204.016 107.711 203.879 108.098 203.893 108.494V156.067C203.879 156.463 204.016 156.85 204.276 157.148C204.535 157.447 204.899 157.635 205.292 157.675H210.955C211.348 157.635 211.712 157.447 211.971 157.148C212.231 156.85 212.368 156.463 212.354 156.067V108.494C212.368 108.098 212.231 107.711 211.971 107.412C211.712 107.114 211.348 106.926 210.955 106.886Z" fill="#373E66"/>
<path d="M245.795 166.93H70.9473V167.28H245.795V166.93Z" fill="#373E66"/>
<path d="M70.9473 174.578C70.9473 174.529 70.9569 174.481 70.9757 174.436C70.9945 174.391 71.022 174.35 71.0567 174.316C71.0913 174.282 71.1324 174.255 71.1775 174.237C71.2227 174.219 71.271 174.21 71.3196 174.211H79.1258C79.2229 174.211 79.3161 174.249 79.3848 174.318C79.4535 174.387 79.4921 174.481 79.4921 174.578V175.674C79.4921 175.771 79.4535 175.865 79.3848 175.934C79.3161 176.003 79.2229 176.041 79.1258 176.041H72.9529V180.546H78.141C78.2388 180.549 78.3318 180.589 78.4009 180.658C78.4701 180.728 78.5103 180.821 78.5133 180.919V181.991C78.5102 182.089 78.4698 182.181 78.4005 182.249C78.3312 182.318 78.2383 182.357 78.141 182.358H72.9529V187.489C72.9498 187.586 72.9094 187.679 72.8401 187.747C72.7707 187.816 72.6778 187.855 72.5806 187.856H71.3196C71.271 187.857 71.2227 187.848 71.1775 187.83C71.1324 187.812 71.0913 187.785 71.0567 187.751C71.022 187.717 70.9945 187.676 70.9757 187.631C70.9569 187.586 70.9473 187.538 70.9473 187.489V174.578Z" fill="#373E66"/>
<path d="M84.0557 178.655C84.9898 178.635 85.9087 178.894 86.6949 179.4C87.481 179.907 88.0988 180.637 88.469 181.497C88.8392 182.357 88.9452 183.309 88.7732 184.23C88.6013 185.15 88.1593 185.999 87.5038 186.667C86.8483 187.334 86.0091 187.791 85.0935 187.978C84.178 188.164 83.2277 188.073 82.3642 187.715C81.5007 187.357 80.7633 186.749 80.2463 185.969C79.7293 185.188 79.4562 184.271 79.462 183.334C79.4619 182.105 79.9435 180.926 80.803 180.051C81.6625 179.175 82.8308 178.674 84.0557 178.655ZM84.0557 186.218C84.4213 186.211 84.7817 186.13 85.1153 185.979C85.4489 185.829 85.7488 185.613 85.9972 185.343C86.2455 185.074 86.4371 184.757 86.5606 184.412C86.6841 184.067 86.7369 183.7 86.7158 183.334C86.7403 182.967 86.6895 182.599 86.5663 182.252C86.4431 181.906 86.2503 181.588 85.9997 181.32C85.7492 181.051 85.4463 180.837 85.1098 180.69C84.7733 180.544 84.4105 180.468 84.0437 180.468C83.6769 180.468 83.314 180.544 82.9775 180.69C82.641 180.837 82.3381 181.051 82.0876 181.32C81.8371 181.588 81.6442 181.906 81.521 182.252C81.3979 182.599 81.347 182.967 81.3715 183.334C81.3513 183.702 81.4054 184.07 81.5306 184.417C81.6559 184.763 81.8497 185.081 82.1004 185.35C82.3511 185.619 82.6536 185.835 82.9896 185.984C83.3256 186.134 83.6882 186.213 84.0557 186.218Z" fill="#373E66"/>
<path d="M90.5288 174.62C90.5318 174.508 90.5777 174.401 90.657 174.321C90.7363 174.242 90.843 174.196 90.9552 174.193H92.06C92.1718 174.199 92.2777 174.245 92.3574 174.324C92.4371 174.403 92.4852 174.508 92.4924 174.62V187.411C92.4878 187.524 92.4407 187.631 92.3604 187.71C92.2801 187.79 92.1727 187.836 92.06 187.838H90.9732C90.8601 187.838 90.7517 187.793 90.6717 187.713C90.5917 187.633 90.5468 187.524 90.5468 187.411L90.5288 174.62Z" fill="#373E66"/>
<path d="M95.8369 174.62C95.8399 174.508 95.8858 174.401 95.9651 174.321C96.0445 174.242 96.1511 174.196 96.2633 174.193H97.3501C97.4619 174.199 97.5678 174.245 97.6475 174.324C97.7272 174.403 97.7752 174.508 97.7825 174.62V182.244L101.241 179.107C101.388 178.946 101.589 178.847 101.806 178.83H103.223C103.291 178.834 103.356 178.857 103.411 178.897C103.466 178.937 103.508 178.992 103.533 179.055C103.558 179.119 103.564 179.188 103.55 179.255C103.537 179.322 103.504 179.383 103.457 179.432L99.8541 182.864L103.661 187.23C103.835 187.447 103.799 187.832 103.409 187.832H101.788C101.711 187.835 101.635 187.82 101.564 187.79C101.494 187.76 101.431 187.715 101.379 187.658L97.7765 183.442V187.381C97.7719 187.494 97.7248 187.601 97.6445 187.68C97.5642 187.76 97.4568 187.805 97.3441 187.808H96.2633C96.1502 187.808 96.0417 187.763 95.9618 187.683C95.8818 187.603 95.8369 187.494 95.8369 187.381V174.62Z" fill="#373E66"/>
<path d="M109.366 178.655C109.91 178.64 110.452 178.737 110.958 178.939C111.464 179.142 111.923 179.446 112.308 179.832C112.693 180.219 112.994 180.681 113.195 181.189C113.395 181.697 113.49 182.24 113.473 182.786C113.473 182.943 113.473 183.256 113.431 183.388C113.425 183.493 113.38 183.592 113.304 183.665C113.228 183.737 113.128 183.778 113.023 183.78H106.82C106.865 184.457 107.169 185.092 107.669 185.55C108.17 186.007 108.827 186.254 109.504 186.237C110.301 186.241 111.076 185.974 111.702 185.478C111.894 185.339 112.068 185.279 112.224 185.514L112.753 186.333C112.909 186.526 112.987 186.706 112.711 186.935C111.768 187.685 110.593 188.08 109.39 188.049C106.664 188.049 104.898 185.905 104.898 183.328C104.898 180.751 106.664 178.655 109.366 178.655ZM111.546 182.359C111.536 182.078 111.47 181.802 111.353 181.546C111.236 181.291 111.07 181.062 110.864 180.871C110.658 180.681 110.416 180.533 110.153 180.437C109.89 180.341 109.61 180.298 109.33 180.311C108.744 180.278 108.168 180.473 107.721 180.854C107.274 181.235 106.99 181.774 106.928 182.359H111.546Z" fill="#373E66"/>
<path d="M115.785 174.62C115.788 174.508 115.834 174.401 115.913 174.321C115.992 174.242 116.099 174.196 116.211 174.193H117.28C117.392 174.199 117.498 174.245 117.577 174.324C117.657 174.403 117.705 174.508 117.712 174.62V179.57C118.457 178.984 119.372 178.656 120.319 178.637C122.865 178.637 123.795 180.444 123.795 182.888V187.411C123.792 187.523 123.746 187.63 123.667 187.71C123.588 187.789 123.481 187.835 123.369 187.838H122.282C122.168 187.838 122.059 187.794 121.978 187.714C121.898 187.634 121.851 187.525 121.85 187.411V182.846C121.85 181.365 121.249 180.492 120.048 180.492C119.577 180.482 119.111 180.598 118.699 180.828C118.286 181.057 117.942 181.392 117.7 181.799V187.411C117.702 187.47 117.692 187.528 117.67 187.583C117.647 187.637 117.614 187.686 117.571 187.726C117.529 187.767 117.478 187.798 117.423 187.817C117.367 187.836 117.308 187.844 117.25 187.838H116.181C116.068 187.838 115.96 187.793 115.88 187.713C115.8 187.633 115.755 187.524 115.755 187.411L115.785 174.62Z" fill="#373E66"/>
<path d="M130.365 178.655C130.909 178.64 131.451 178.737 131.957 178.939C132.463 179.142 132.922 179.446 133.306 179.832C133.691 180.219 133.993 180.681 134.193 181.189C134.394 181.697 134.488 182.24 134.472 182.786C134.472 182.943 134.472 183.256 134.43 183.388C134.422 183.493 134.376 183.591 134.301 183.663C134.225 183.735 134.126 183.777 134.021 183.78H127.819C127.863 184.457 128.168 185.092 128.668 185.55C129.168 186.007 129.826 186.254 130.503 186.237C131.3 186.241 132.075 185.974 132.7 185.478C132.893 185.339 133.067 185.279 133.223 185.514L133.751 186.333C133.907 186.526 133.985 186.706 133.709 186.935C132.767 187.685 131.591 188.08 130.389 188.049C127.662 188.049 125.897 185.905 125.897 183.328C125.897 180.751 127.662 178.655 130.365 178.655ZM132.544 182.359C132.534 182.078 132.469 181.802 132.352 181.546C132.235 181.291 132.068 181.062 131.862 180.871C131.656 180.681 131.415 180.533 131.151 180.437C130.888 180.341 130.608 180.298 130.329 180.311C129.743 180.278 129.167 180.473 128.72 180.854C128.273 181.235 127.989 181.774 127.927 182.359H132.544Z" fill="#373E66"/>
<path d="M136.898 174.62C136.902 174.507 136.95 174.4 137.03 174.321C137.11 174.242 137.218 174.196 137.33 174.193H138.417C138.528 174.2 138.632 174.247 138.711 174.326C138.789 174.405 138.836 174.509 138.844 174.62V187.411C138.839 187.523 138.793 187.629 138.714 187.708C138.635 187.788 138.529 187.834 138.417 187.838H137.33C137.217 187.838 137.108 187.794 137.027 187.714C136.946 187.634 136.9 187.525 136.898 187.411V174.62Z" fill="#373E66"/>
<path d="M141.509 187.158C141.43 187.113 141.369 187.04 141.341 186.953C141.312 186.866 141.316 186.772 141.353 186.688L141.762 185.851C141.79 185.8 141.829 185.756 141.876 185.721C141.923 185.687 141.977 185.663 142.034 185.652C142.091 185.64 142.15 185.642 142.207 185.655C142.263 185.669 142.316 185.694 142.362 185.731C143.028 186.161 143.803 186.391 144.596 186.393C145.358 186.393 145.797 186.026 145.797 185.52C145.797 184.918 145.112 184.526 143.869 183.96C142.488 183.358 141.467 182.593 141.467 181.112C141.467 179.98 142.266 178.655 144.47 178.655C145.388 178.632 146.296 178.861 147.094 179.317C147.2 179.386 147.279 179.49 147.314 179.612C147.349 179.734 147.339 179.865 147.286 179.98L146.98 180.582C146.953 180.634 146.917 180.681 146.871 180.719C146.826 180.756 146.774 180.784 146.718 180.801C146.661 180.817 146.602 180.822 146.544 180.814C146.486 180.806 146.43 180.787 146.379 180.757C145.778 180.47 145.123 180.317 144.458 180.305C143.677 180.305 143.311 180.696 143.311 181.106C143.311 181.708 143.953 182.045 144.848 182.431C146.499 183.135 147.742 183.737 147.742 185.442C147.742 186.845 146.541 188.073 144.536 188.073C143.457 188.09 142.399 187.77 141.509 187.158Z" fill="#373E66"/>
<path d="M153.735 178.655C154.28 178.64 154.821 178.737 155.327 178.939C155.833 179.142 156.292 179.446 156.677 179.832C157.062 180.219 157.363 180.681 157.564 181.189C157.764 181.697 157.859 182.24 157.842 182.786C157.842 182.943 157.842 183.256 157.8 183.388C157.793 183.493 157.747 183.591 157.672 183.663C157.596 183.735 157.496 183.777 157.392 183.78H151.189C151.234 184.457 151.538 185.092 152.038 185.55C152.539 186.007 153.196 186.254 153.873 186.237C154.67 186.241 155.446 185.974 156.071 185.478C156.263 185.339 156.437 185.279 156.593 185.514L157.122 186.333C157.278 186.526 157.356 186.706 157.08 186.935C156.137 187.685 154.962 188.08 153.759 188.049C151.033 188.049 149.268 185.905 149.268 183.328C149.268 180.751 151.033 178.655 153.735 178.655ZM155.915 182.359C155.904 182.078 155.838 181.802 155.721 181.547C155.603 181.293 155.437 181.063 155.231 180.873C155.025 180.683 154.784 180.535 154.521 180.439C154.258 180.342 153.979 180.299 153.699 180.311C153.113 180.277 152.536 180.471 152.089 180.852C151.642 181.233 151.358 181.773 151.297 182.359H155.915Z" fill="#373E66"/>
<path d="M159.914 175.614C159.91 175.442 159.94 175.272 160.002 175.112C160.065 174.952 160.158 174.806 160.277 174.683C160.396 174.56 160.538 174.462 160.696 174.394C160.853 174.326 161.022 174.291 161.193 174.289C161.373 174.277 161.553 174.302 161.723 174.363C161.893 174.423 162.048 174.518 162.18 174.641C162.311 174.765 162.416 174.914 162.488 175.08C162.56 175.245 162.597 175.424 162.597 175.605C162.597 175.786 162.56 175.964 162.488 176.13C162.416 176.296 162.311 176.445 162.18 176.568C162.048 176.692 161.893 176.787 161.723 176.847C161.553 176.908 161.373 176.933 161.193 176.921C161.023 176.92 160.855 176.885 160.699 176.819C160.542 176.753 160.401 176.656 160.282 176.535C160.163 176.413 160.069 176.269 160.006 176.111C159.943 175.953 159.912 175.784 159.914 175.614ZM160.226 179.281C160.229 179.168 160.275 179.061 160.354 178.98C160.433 178.9 160.54 178.852 160.653 178.848H161.715C161.827 178.855 161.932 178.903 162.011 178.983C162.089 179.063 162.136 179.169 162.142 179.281V187.429C162.139 187.541 162.093 187.648 162.013 187.728C161.934 187.807 161.827 187.853 161.715 187.856H160.628C160.573 187.856 160.517 187.845 160.465 187.824C160.414 187.802 160.367 187.771 160.327 187.731C160.287 187.692 160.256 187.644 160.235 187.593C160.213 187.541 160.202 187.485 160.202 187.429L160.226 179.281Z" fill="#373E66"/>
<path d="M165.132 179.281C165.135 179.168 165.181 179.061 165.26 178.98C165.339 178.9 165.446 178.852 165.559 178.848H166.027C166.111 178.84 166.196 178.864 166.263 178.916C166.331 178.967 166.377 179.041 166.393 179.125L166.67 179.902C167.057 179.497 167.523 179.177 168.04 178.962C168.557 178.748 169.113 178.643 169.672 178.655C172.416 178.655 173.155 180.564 173.155 182.906V187.429C173.15 187.541 173.104 187.647 173.025 187.726C172.946 187.805 172.84 187.852 172.728 187.856H171.642C171.528 187.856 171.419 187.812 171.338 187.732C171.257 187.652 171.211 187.543 171.209 187.429V182.828C171.209 181.365 170.609 180.51 169.444 180.51C168.969 180.501 168.5 180.617 168.084 180.846C167.668 181.076 167.319 181.41 167.072 181.816V187.429C167.072 187.724 166.916 187.856 166.543 187.856H165.559C165.503 187.856 165.447 187.845 165.396 187.824C165.344 187.802 165.297 187.771 165.257 187.731C165.218 187.691 165.186 187.644 165.165 187.592C165.143 187.541 165.132 187.485 165.132 187.429V179.281Z" fill="#373E66"/>
<path d="M175.689 187.158C175.646 187.136 175.608 187.106 175.576 187.07C175.545 187.033 175.521 186.991 175.506 186.945C175.491 186.899 175.485 186.851 175.488 186.802C175.492 186.754 175.505 186.707 175.527 186.664L175.935 185.827C175.963 185.776 176.002 185.732 176.049 185.698C176.097 185.663 176.15 185.639 176.208 185.628C176.265 185.616 176.324 185.618 176.38 185.631C176.437 185.645 176.49 185.671 176.536 185.707C177.204 186.137 177.981 186.367 178.775 186.369C179.532 186.369 179.976 186.002 179.976 185.496C179.976 184.894 179.298 184.502 178.055 183.936C176.674 183.334 175.623 182.569 175.623 181.088C175.623 179.956 176.421 178.631 178.595 178.631C179.514 178.608 180.421 178.837 181.219 179.293C181.326 179.362 181.405 179.466 181.441 179.588C181.477 179.709 181.469 179.84 181.417 179.956L181.105 180.558C181.08 180.611 181.043 180.658 180.998 180.697C180.953 180.735 180.9 180.763 180.844 180.78C180.787 180.796 180.728 180.8 180.669 180.792C180.611 180.784 180.555 180.764 180.505 180.733C179.901 180.447 179.244 180.293 178.577 180.281C177.803 180.281 177.43 180.672 177.43 181.082C177.43 181.684 178.073 182.021 178.967 182.407C180.619 183.111 181.862 183.713 181.862 185.418C181.862 186.821 180.661 188.049 178.655 188.049C177.599 188.059 176.565 187.749 175.689 187.158Z" fill="#373E66"/>
<path d="M184.81 180.51H183.777C183.664 180.508 183.555 180.462 183.475 180.381C183.396 180.3 183.351 180.19 183.351 180.076V179.281C183.348 179.224 183.358 179.167 183.378 179.114C183.399 179.061 183.43 179.012 183.47 178.971C183.51 178.931 183.558 178.899 183.611 178.877C183.664 178.856 183.72 178.846 183.777 178.848H184.81V176.337C184.81 176.223 184.855 176.113 184.935 176.032C185.014 175.951 185.123 175.905 185.237 175.903H186.335C186.391 175.905 186.445 175.917 186.495 175.94C186.546 175.962 186.591 175.995 186.629 176.035C186.667 176.075 186.697 176.123 186.716 176.174C186.736 176.226 186.745 176.281 186.744 176.337V178.836H189.116C189.173 178.835 189.229 178.846 189.282 178.867C189.335 178.889 189.383 178.92 189.423 178.961C189.463 179.001 189.495 179.049 189.517 179.102C189.538 179.155 189.549 179.212 189.548 179.269V180.064C189.543 180.178 189.497 180.285 189.416 180.366C189.336 180.446 189.229 180.493 189.116 180.498H186.744V185.315C186.744 186.074 187.038 186.231 187.464 186.231C187.973 186.213 188.469 186.066 188.905 185.803C188.95 185.771 189.002 185.75 189.056 185.743C189.111 185.735 189.166 185.742 189.218 185.761C189.269 185.78 189.315 185.811 189.352 185.852C189.389 185.893 189.415 185.942 189.428 185.996L189.782 186.917C189.878 187.146 189.782 187.303 189.566 187.441C188.799 187.854 187.944 188.075 187.074 188.085C185.273 188.085 184.804 186.995 184.804 185.394L184.81 180.51Z" fill="#373E66"/>
<path d="M191.494 175.614C191.49 175.442 191.52 175.271 191.582 175.111C191.645 174.95 191.739 174.804 191.859 174.681C191.978 174.558 192.121 174.46 192.279 174.392C192.437 174.325 192.607 174.29 192.779 174.289C192.958 174.277 193.139 174.302 193.308 174.363C193.478 174.423 193.634 174.518 193.765 174.641C193.897 174.765 194.002 174.914 194.074 175.08C194.145 175.245 194.182 175.424 194.182 175.605C194.182 175.786 194.145 175.964 194.074 176.13C194.002 176.296 193.897 176.445 193.765 176.568C193.634 176.692 193.478 176.787 193.308 176.847C193.139 176.908 192.958 176.933 192.779 176.921C192.608 176.921 192.44 176.887 192.283 176.821C192.126 176.755 191.983 176.658 191.863 176.537C191.744 176.415 191.65 176.271 191.586 176.113C191.523 175.954 191.491 175.785 191.494 175.614ZM191.806 179.281C191.81 179.169 191.856 179.062 191.935 178.982C192.014 178.901 192.12 178.854 192.232 178.848H193.325C193.436 178.856 193.541 178.905 193.619 178.984C193.697 179.064 193.744 179.17 193.751 179.281V187.429C193.747 187.541 193.701 187.647 193.622 187.726C193.543 187.806 193.437 187.852 193.325 187.856H192.232C192.12 187.855 192.012 187.809 191.932 187.73C191.853 187.65 191.807 187.542 191.806 187.429V179.281Z" fill="#373E66"/>
<path d="M197.234 180.51H196.201C196.088 180.508 195.979 180.462 195.899 180.381C195.82 180.3 195.775 180.19 195.775 180.076V179.281C195.772 179.224 195.782 179.167 195.802 179.114C195.823 179.061 195.854 179.012 195.894 178.971C195.934 178.931 195.982 178.899 196.035 178.877C196.087 178.856 196.144 178.846 196.201 178.848H197.234V176.337C197.234 176.223 197.279 176.113 197.358 176.032C197.438 175.951 197.547 175.905 197.66 175.903H198.765C198.82 175.905 198.875 175.917 198.925 175.94C198.976 175.962 199.021 175.995 199.059 176.035C199.097 176.075 199.127 176.123 199.146 176.174C199.166 176.226 199.175 176.281 199.174 176.337V178.836H201.545C201.602 178.835 201.659 178.846 201.712 178.867C201.765 178.889 201.813 178.92 201.853 178.961C201.893 179.001 201.925 179.049 201.946 179.102C201.968 179.155 201.979 179.212 201.978 179.269V180.064C201.973 180.178 201.926 180.285 201.846 180.366C201.766 180.446 201.659 180.493 201.545 180.498H199.174V185.315C199.174 186.074 199.468 186.231 199.894 186.231C200.403 186.213 200.899 186.066 201.335 185.803C201.38 185.771 201.432 185.75 201.486 185.743C201.54 185.735 201.596 185.742 201.647 185.761C201.699 185.78 201.745 185.811 201.782 185.852C201.818 185.893 201.844 185.942 201.858 185.996L202.206 186.917C202.308 187.146 202.206 187.303 201.996 187.441C201.229 187.854 200.374 188.075 199.504 188.085C197.702 188.085 197.234 186.995 197.234 185.394V180.51Z" fill="#373E66"/>
<path d="M204.038 179.281C204.045 179.17 204.091 179.064 204.17 178.984C204.248 178.905 204.353 178.856 204.464 178.848H205.551C205.664 178.852 205.771 178.899 205.852 178.98C205.932 179.06 205.979 179.168 205.983 179.281V184.099C205.983 185.58 206.584 186.243 207.731 186.243C208.19 186.243 208.639 186.101 209.016 185.836C209.392 185.571 209.677 185.195 209.832 184.761V179.305C209.832 178.932 210.006 178.872 210.337 178.872H211.327C211.442 178.876 211.552 178.922 211.635 179.002C211.718 179.082 211.769 179.19 211.778 179.305V187.453C211.772 187.568 211.721 187.677 211.638 187.757C211.554 187.836 211.443 187.881 211.327 187.88H210.859C210.631 187.88 210.529 187.724 210.451 187.513L210.223 186.869C209.867 187.268 209.429 187.583 208.937 187.791C208.446 187.999 207.915 188.096 207.382 188.073C204.698 188.073 204.038 186.267 204.038 183.936V179.281Z" fill="#373E66"/>
<path d="M215.273 180.51H214.246C214.132 180.508 214.022 180.462 213.942 180.381C213.861 180.3 213.815 180.191 213.813 180.076V179.281C213.811 179.224 213.82 179.166 213.841 179.112C213.862 179.059 213.894 179.01 213.934 178.969C213.975 178.928 214.024 178.896 214.077 178.876C214.131 178.855 214.188 178.845 214.246 178.848H215.273V176.337C215.274 176.222 215.32 176.113 215.401 176.032C215.482 175.951 215.591 175.905 215.705 175.903H216.81C216.865 175.905 216.919 175.917 216.97 175.94C217.02 175.962 217.066 175.995 217.104 176.035C217.141 176.075 217.171 176.123 217.191 176.174C217.21 176.226 217.22 176.281 217.218 176.337V178.836H219.59C219.647 178.835 219.703 178.846 219.756 178.867C219.808 178.889 219.856 178.921 219.895 178.961C219.935 179.002 219.967 179.05 219.987 179.103C220.008 179.156 220.018 179.212 220.016 179.269V180.064C220.013 180.177 219.968 180.285 219.889 180.365C219.809 180.446 219.703 180.493 219.59 180.498H217.218V185.315C217.218 186.074 217.512 186.231 217.939 186.231C218.447 186.211 218.943 186.064 219.38 185.803C219.424 185.771 219.476 185.75 219.531 185.743C219.585 185.735 219.64 185.742 219.692 185.761C219.744 185.78 219.79 185.811 219.826 185.852C219.863 185.893 219.889 185.942 219.902 185.996L220.251 186.917C220.347 187.146 220.251 187.303 220.04 187.441C219.274 187.854 218.419 188.075 217.548 188.085C215.747 188.085 215.273 186.995 215.273 185.394V180.51Z" fill="#373E66"/>
<path d="M223.169 180.51H222.136C222.022 180.508 221.914 180.462 221.834 180.381C221.754 180.3 221.709 180.19 221.709 180.076V179.281C221.707 179.224 221.716 179.167 221.737 179.114C221.757 179.061 221.788 179.012 221.828 178.971C221.868 178.931 221.916 178.899 221.969 178.877C222.022 178.856 222.079 178.846 222.136 178.848H223.169V176.337C223.169 176.223 223.213 176.113 223.293 176.032C223.373 175.951 223.481 175.905 223.595 175.903H224.706C224.761 175.905 224.815 175.917 224.866 175.94C224.916 175.962 224.962 175.995 225 176.035C225.037 176.075 225.067 176.123 225.087 176.174C225.106 176.226 225.116 176.281 225.114 176.337V178.836H227.486C227.543 178.835 227.599 178.846 227.652 178.867C227.704 178.889 227.752 178.921 227.791 178.961C227.831 179.002 227.863 179.05 227.883 179.103C227.904 179.156 227.914 179.212 227.912 179.269V180.064C227.909 180.177 227.864 180.285 227.785 180.365C227.705 180.446 227.599 180.493 227.486 180.498H225.114V185.315C225.114 186.074 225.402 186.231 225.835 186.231C226.341 186.212 226.835 186.065 227.27 185.803C227.315 185.771 227.367 185.751 227.422 185.743C227.477 185.736 227.532 185.742 227.584 185.761C227.636 185.78 227.683 185.811 227.72 185.852C227.757 185.893 227.784 185.942 227.798 185.996L228.147 186.917C228.243 187.146 228.147 187.303 227.93 187.441C227.166 187.855 226.313 188.076 225.444 188.085C223.643 188.085 223.169 186.995 223.169 185.394V180.51Z" fill="#373E66"/>
<path d="M233.923 178.655C234.467 178.641 235.008 178.738 235.514 178.941C236.019 179.144 236.477 179.448 236.861 179.834C237.245 180.221 237.546 180.682 237.746 181.19C237.946 181.697 238.041 182.24 238.025 182.786C238.022 182.987 238.008 183.188 237.983 183.388C237.976 183.493 237.931 183.592 237.855 183.664C237.779 183.737 237.679 183.778 237.574 183.78H231.371C231.417 184.457 231.722 185.09 232.222 185.548C232.722 186.005 233.379 186.252 234.055 186.236C234.853 186.241 235.628 185.973 236.253 185.478C236.451 185.339 236.625 185.279 236.782 185.514L237.304 186.333C237.46 186.526 237.538 186.706 237.262 186.935C236.32 187.686 235.144 188.08 233.941 188.049C231.221 188.049 229.45 185.905 229.45 183.328C229.45 180.751 231.221 178.655 233.923 178.655ZM236.097 182.358C236.087 182.078 236.022 181.802 235.905 181.546C235.787 181.291 235.621 181.062 235.415 180.871C235.209 180.681 234.967 180.533 234.704 180.437C234.441 180.341 234.161 180.298 233.881 180.311C233.295 180.275 232.717 180.468 232.27 180.85C231.822 181.232 231.539 181.772 231.479 182.358H236.097Z" fill="#373E66"/>
<path d="M240.883 180.51H239.85C239.736 180.508 239.628 180.462 239.548 180.381C239.468 180.3 239.424 180.19 239.424 180.076V179.281C239.421 179.224 239.431 179.167 239.451 179.114C239.471 179.061 239.503 179.012 239.543 178.971C239.583 178.931 239.631 178.899 239.684 178.877C239.736 178.856 239.793 178.846 239.85 178.848H240.883V176.337C240.883 176.223 240.928 176.113 241.007 176.032C241.087 175.951 241.196 175.905 241.309 175.903H242.414C242.47 175.904 242.525 175.916 242.576 175.938C242.627 175.96 242.673 175.993 242.712 176.033C242.75 176.073 242.78 176.121 242.801 176.173C242.821 176.225 242.83 176.281 242.828 176.337V178.836H245.182C245.239 178.836 245.295 178.847 245.347 178.869C245.399 178.891 245.446 178.923 245.486 178.963C245.526 179.003 245.557 179.051 245.578 179.104C245.599 179.156 245.609 179.213 245.609 179.269V180.064C245.604 180.177 245.558 180.284 245.479 180.364C245.4 180.444 245.295 180.492 245.182 180.498H242.81V185.315C242.81 186.074 243.099 186.231 243.525 186.231C244.034 186.213 244.53 186.066 244.966 185.803C245.011 185.771 245.063 185.75 245.117 185.743C245.171 185.735 245.227 185.742 245.278 185.761C245.33 185.78 245.376 185.811 245.413 185.852C245.449 185.893 245.475 185.942 245.489 185.996L245.843 186.917C245.939 187.146 245.843 187.303 245.627 187.441C244.862 187.853 244.009 188.074 243.141 188.085C241.339 188.085 240.865 186.995 240.865 185.394L240.883 180.51Z" fill="#373E66"/>
</svg>
