<svg width="48" height="48" viewBox="0 0 48 48" fill="none" xmlns="http://www.w3.org/2000/svg">
<path fill-rule="evenodd" clip-rule="evenodd" d="M27.4148 0.599689C27.1655 0.687941 26.2576 1.48218 25.403 2.34705C22.9105 4.85338 20.507 5.75355 18.9224 4.80044C17.7652 4.11208 16.3588 2.84126 16.0562 2.2235C15.3262 0.687932 14.6674 1.21744 14.1689 3.79438C13.1897 8.80705 10.1988 11.1898 5.73012 10.5721C3.18421 10.2191 2.98834 10.3426 4.18118 11.7193C7.88431 16.0084 5.99717 23.1567 0.567098 25.4159C-0.394292 25.8219 -0.251933 25.9984 1.92009 27.0751C5.39178 28.7871 7.36797 33.4998 6.28196 37.4005C5.92589 38.6536 5.92585 39.2361 6.24631 39.4479C6.60238 39.6773 7.31449 39.642 7.63495 39.3596C8.43611 38.6713 11.7833 38.5124 12.8515 39.1125C14.1512 39.8362 16.7327 43.8957 16.7327 45.2195C16.7327 45.8726 17.4982 47.0375 18.0679 47.2846C19.0649 47.7082 19.0827 47.6905 20.7384 45.5019C24.6374 40.3657 27.6462 39.8891 31.1179 43.8251C33.0584 46.0138 33.9664 46.0138 34.2868 43.8075C35.1414 37.9123 38.8624 34.2587 42.8148 35.4413C45.1649 36.1473 45.2183 35.9002 43.883 31.47C43.3311 29.6873 43.4735 27.7987 44.2391 26.4043C45.2005 24.657 46.7138 22.4683 47.4437 21.78C48.4229 20.8445 48.0845 20.1915 46.6246 20.1915C45.1291 20.1915 42.8681 17.8969 42.1204 15.62C41.5863 14.0492 42.156 10.4485 43.2776 8.13634C43.6871 7.28912 43.4735 6.72432 42.6545 6.53017C42.1916 6.40662 41.4973 6.67136 41.4973 6.93611C41.4973 7.48327 35.996 7.88924 34.1978 7.48329C31.3493 6.83023 28.3761 3.58257 28.7678 1.53514C28.8746 0.758529 28.2515 0.281985 27.4148 0.599689ZM28.3227 4.76514C29.7648 7.81864 34.2157 9.30124 39.7882 8.61288L40.7674 8.48934L40.4113 9.30125C38.3817 13.9962 40.3044 19.1148 44.7553 20.7916C45.7523 21.1622 45.7879 20.9857 44.4348 22.6095C40.7317 27.0927 40.3045 29.0872 42.2807 32.9349C42.7258 33.7821 43.0107 34.4705 42.9395 34.4705C42.8682 34.4705 42.1917 34.3646 41.4262 34.2234C39.3431 33.8528 38.2926 34.1351 36.3876 35.5295C33.6993 37.5063 32.5599 39.5538 32.5599 42.4661V43.1368L31.4383 42.2366C27.3257 38.9184 22.7145 39.6773 19.2963 44.2311L18.7801 44.9018L18.0323 43.3486C16.0739 39.2184 13.1898 37.3299 9.52223 37.7711L8.13359 37.93L8.24034 37.3828C9.0415 32.9879 7.02963 28.4341 3.45113 26.5632L2.38292 25.9984L3.89621 24.4452C7.93761 20.2974 8.77445 16.2908 6.37097 12.4606L6.0149 11.8958L6.97636 12.0017C10.9465 12.4077 15.3262 9.10711 15.7535 5.36526L15.8781 4.32389L16.697 4.90633C19.9729 7.21852 23.1596 6.93613 26.2753 4.04149C27.4325 2.98247 27.5037 2.92951 27.6639 3.28252C27.7351 3.51197 28.0378 4.16504 28.3227 4.76514ZM20.8808 9.93665C5.17814 14.1374 8.27588 38.936 24.3703 37.8064C38.524 36.818 43.9898 16.785 31.5096 11.3134C29.4978 10.4309 29.0705 11.4369 31.0645 12.7607C43.7584 21.1799 31.2424 42.7661 18.1747 34.9824C8.43614 29.1931 11.5874 15.3376 21.593 11.4899C22.8926 10.9957 24.94 10.6074 26.4533 10.6956C28.0378 10.7839 28.5542 9.83076 26.5602 9.53071C25.0113 9.28361 22.3585 9.5307 20.8808 9.93665Z" fill="#402E24"/>
</svg>
