<svg width="98" height="97" viewBox="0 0 98 97" fill="none" xmlns="http://www.w3.org/2000/svg">
<path d="M49.7757 76.9053C64.185 75.8883 74.1438 65.0758 77.3383 53.1593C80.5336 41.24 76.9905 28.0574 64.2218 22.3997C63.1868 21.9409 62.3117 21.7066 61.6375 21.6854C61.0012 21.6653 60.3223 21.8439 60.098 22.4813C59.9949 22.7743 60.0267 23.0846 60.1236 23.3707C60.2207 23.6579 60.3938 23.954 60.6246 24.2518C61.0864 24.8476 61.8272 25.511 62.8504 26.1975L62.8506 26.1976C75.2549 34.5122 75.395 49.3493 69.1267 60.2729C65.9972 65.7268 61.2935 70.1481 55.7954 72.2435C50.3136 74.3327 44.0095 74.1241 37.6072 70.27L37.6068 70.2698C28.0677 64.5387 24.8405 54.8297 26.4522 45.5701C28.0665 36.2952 34.535 27.5011 44.3666 23.6798C46.9109 22.7023 50.9335 21.9338 53.8772 22.1073L53.8785 22.1074C54.7179 22.1546 55.4443 22.0647 56.0002 21.8737C56.5217 21.6945 57.0288 21.3755 57.1775 20.865C57.3493 20.2748 56.9679 19.7881 56.4831 19.4803C55.9849 19.164 55.2242 18.9159 54.1979 18.7596C52.5927 18.5011 50.4478 18.5041 48.3482 18.6704C46.2452 18.837 44.1471 19.1707 42.6294 19.5919C26.6269 23.9194 20.2382 38.8563 21.9071 52.342C22.7421 59.09 25.5947 65.5176 30.3046 70.1195C35.0236 74.7302 41.5862 77.4862 49.7757 76.9053ZM49.7757 76.9053L49.7405 76.4065L49.7759 76.9053C49.7758 76.9053 49.7758 76.9053 49.7757 76.9053ZM39.1046 9.26512L39.1025 9.26384C37.9795 8.58872 36.7239 7.62007 35.6742 6.66473C35.1503 6.18788 34.6834 5.71957 34.3135 5.29862C33.9388 4.87216 33.6856 4.5188 33.5635 4.26816C33.1919 3.47862 32.7929 2.86784 32.3442 2.53592C32.1093 2.36218 31.8351 2.24604 31.5312 2.25102C31.225 2.25603 30.9559 2.38276 30.7313 2.57003C30.3058 2.92471 29.9653 3.55775 29.6732 4.35726C29.3739 5.17655 29.0986 6.24874 28.8468 7.56397C27.8818 12.5569 25.9386 16.1708 23.2014 18.3879C20.4733 20.5976 16.8912 21.4727 12.5294 20.8633C11.2575 20.685 10.2573 20.5637 9.51595 20.529C9.14544 20.5117 8.82155 20.515 8.55138 20.5488C8.2917 20.5812 8.0226 20.6483 7.81084 20.8042C7.56404 20.9858 7.44318 21.2523 7.4518 21.5473C7.45925 21.8024 7.56194 22.0537 7.68453 22.2794C7.93261 22.7362 8.38981 23.3112 8.98247 24.0025C16.152 32.3952 12.512 46.4559 1.94039 50.9011L1.93794 50.9021C1.69188 51.0071 1.4682 51.1101 1.27874 51.2146C1.09366 51.3167 0.913474 51.4351 0.774549 51.5796C0.630665 51.7292 0.5023 51.9383 0.50003 52.2056C0.497835 52.4641 0.614957 52.6793 0.747846 52.8442C1.00013 53.1572 1.46068 53.4718 2.06351 53.8214C2.68573 54.1822 3.53045 54.6186 4.61624 55.1626L4.61716 55.163C7.96082 56.8295 10.6109 59.9726 12.1588 63.6843C13.7061 67.3945 14.1343 71.6317 13.0822 75.452C12.7241 76.7261 12.5307 77.7053 12.5209 78.4379C12.5111 79.1665 12.6841 79.7857 13.2149 80.1402L13.2198 80.1434C13.6966 80.454 14.3499 80.5573 14.9376 80.5223C15.5227 80.4876 16.1636 80.3085 16.5995 79.9221C16.9034 79.6592 17.5189 79.4005 18.3892 79.1974C19.2397 78.9989 20.2624 78.8693 21.3101 78.8191C22.3573 78.7689 23.4153 78.7988 24.3351 78.9134C25.2683 79.0297 26.0086 79.2273 26.4562 79.4814L26.4578 79.4823C27.0234 79.8006 27.7848 80.5267 28.6288 81.5367C29.4611 82.5329 30.3372 83.7604 31.1357 85.0299C31.9343 86.2996 32.6489 87.6011 33.1618 88.7434C33.6851 89.9088 33.9653 90.8377 33.9653 91.3905C33.9653 92.1972 34.4125 93.2162 34.9528 94.0558C35.2306 94.4875 35.5492 94.8972 35.8798 95.2363C36.205 95.5699 36.5668 95.8611 36.9351 96.0226L36.9385 96.024L36.9484 96.0283C37.4232 96.2321 37.8629 96.421 38.2752 96.4799C38.7408 96.5464 39.1598 96.45 39.5926 96.157C39.9939 95.8854 40.4102 95.4426 40.9129 94.8274C41.4213 94.2053 42.0517 93.3637 42.8767 92.2616C46.7656 87.084 50.1166 84.3941 53.257 83.8836C56.3449 83.3817 59.4256 84.9669 62.859 88.9008L62.8599 88.9018C63.8394 90.0183 64.7059 90.8761 65.4705 91.4578C66.2213 92.0291 66.9432 92.3885 67.622 92.3855C68.3606 92.3822 68.911 91.9573 69.2922 91.2948C69.661 90.6536 69.9056 89.742 70.0686 88.6075L70.0686 88.6074C70.9118 82.7288 73.1635 78.0137 76.1304 75.0714C79.0871 72.1392 82.7393 70.9719 86.4849 72.1046C87.6438 72.4564 88.6001 72.7171 89.3107 72.7329C89.6741 72.7409 90.0344 72.6878 90.3385 72.4994C90.6583 72.3012 90.85 71.9953 90.9453 71.6328C91.0369 71.2846 91.0446 70.8702 91.0007 70.4033C90.9563 69.9313 90.8556 69.3725 90.7073 68.7206C90.4109 67.4179 89.9119 65.6918 89.2452 63.4559L89.2441 63.4524C88.1732 59.9566 88.4603 56.2813 89.9173 53.5989C90.8693 51.8502 92.0974 49.8759 93.2688 48.1662C94.4481 46.4451 95.5441 45.0306 96.2324 44.3747L96.2347 44.3724C96.7499 43.875 97.1256 43.3841 97.3281 42.9097C97.5336 42.4282 97.5744 41.9239 97.3429 41.4708C97.1177 41.03 96.687 40.7419 96.1758 40.5651C95.6613 40.3873 95.0112 40.3019 94.2493 40.3019C93.6235 40.3019 92.8688 40.0561 92.0423 39.5735C91.2217 39.0944 90.3641 38.4016 89.5422 37.5586C87.8954 35.8695 86.4366 33.6239 85.7163 31.4073L85.7147 31.4024C85.2205 29.9335 85.2213 27.4202 85.6504 24.6365C86.0764 21.8732 86.9101 18.9347 88.006 16.6515L88.0063 16.6509C88.4407 15.7425 88.601 14.874 88.3206 14.1387C88.0317 13.3811 87.3387 12.9226 86.432 12.704C85.8423 12.5472 85.158 12.6427 84.6327 12.835C84.365 12.933 84.1063 13.0676 83.9044 13.2372C83.7445 13.3715 83.5604 13.58 83.5087 13.8563C83.4704 13.8793 83.4112 13.9098 83.3245 13.9455C83.0608 14.054 82.6538 14.1661 82.1202 14.2738C81.0609 14.4877 79.596 14.6664 78.0062 14.786C74.8075 15.0267 71.226 15.0196 69.5081 14.628C66.7844 13.9968 63.9583 12.0947 61.9063 9.82529C60.8835 8.69417 60.0687 7.48859 59.5584 6.32964C59.0458 5.16567 58.8563 4.08605 59.0268 3.1853L59.0292 3.17257L59.0309 3.15973C59.1576 2.22882 58.8546 1.3971 58.1829 0.912081C57.5187 0.432385 56.6033 0.370313 55.6548 0.733004C55.4479 0.808758 55.1857 0.989128 54.9284 1.18466C54.6483 1.39746 54.3114 1.67797 53.9415 2.00339C53.201 2.65485 52.3109 3.50182 51.449 4.38327C48.9871 6.88515 46.5977 8.55477 44.4662 9.36791C42.3382 10.1797 40.5164 10.1234 39.1046 9.26512ZM83.5615 13.8188C83.5615 13.8188 83.5605 13.8199 83.5582 13.8219C83.5602 13.8198 83.5614 13.8188 83.5615 13.8188ZM81.7263 17.7558L81.364 18.5907L81.3629 18.5931C77.2091 28.3043 81.1266 38.977 90.3326 42.4821L90.3347 42.4829C90.5303 42.5564 90.6962 42.6158 90.8384 42.6666C91.0922 42.7575 91.2706 42.8213 91.4074 42.8902C91.4146 42.8938 91.4213 42.8973 91.4276 42.9006C91.4127 42.9313 91.3913 42.9713 91.3604 43.0219C91.2825 43.1498 91.1651 43.3136 90.9975 43.5287C90.7682 43.8229 90.4672 44.1854 90.083 44.6481C89.9021 44.8659 89.7028 45.1059 89.4839 45.3714L89.4825 45.3731C85.7769 49.907 83.6387 53.2624 82.9665 56.5049C82.2872 59.7812 83.1191 62.8579 85.1156 66.7865L85.1177 66.7906C85.5582 67.6379 85.917 68.4012 86.1464 68.9476C86.1633 68.9879 86.1794 69.0268 86.1947 69.0643C86.1229 69.0529 86.0468 69.0406 85.9668 69.0276C85.4232 68.939 84.7059 68.8148 83.9439 68.6728L83.9408 68.6722C81.8228 68.2913 80.1744 68.2355 78.5528 68.663C76.9384 69.0886 75.3996 69.9808 73.4779 71.4024L73.477 71.403C70.7505 73.4293 68.7791 75.514 67.4926 77.8656C66.2037 80.2216 65.6197 82.8133 65.6197 85.825V86.1314L64.1925 84.9737C64.1923 84.9736 64.1921 84.9734 64.1919 84.9732C59.9913 81.5481 55.4886 80.1932 51.1319 80.9169C46.783 81.6392 42.665 84.4183 39.1928 89.0922C39.1923 89.0929 39.1917 89.0937 39.1911 89.0945L38.659 89.7932L37.5172 87.3965C37.5171 87.3962 37.5169 87.3959 37.5168 87.3956C35.5324 83.1663 33.0591 80.0415 30.1124 78.0901C27.1572 76.1331 23.7606 75.3798 19.9849 75.8388C19.9846 75.8388 19.9844 75.8388 19.9841 75.8389L17.8874 76.0813L17.9717 75.6451L17.9727 75.6391C19.6075 66.5758 15.5147 57.1386 8.13719 53.2396C8.13674 53.2393 8.13629 53.2391 8.13584 53.2389L6.58491 52.4101L9.15239 49.7468C13.2336 45.5136 15.7374 41.3114 16.5907 37.1474C17.4469 32.9687 16.6302 28.8795 14.1667 24.912L14.1662 24.9111L14.0003 24.6453L14.8974 24.7451L14.8974 24.7452L14.9013 24.7456C19.0233 25.1715 23.322 23.6536 26.6904 21.0825C30.0566 18.513 32.5567 14.8423 33.0036 10.8916C33.0036 10.8911 33.0037 10.8907 33.0038 10.8902L33.153 9.63012L34.1022 10.3124L34.1037 10.3135C37.4509 12.7012 40.799 13.7802 44.1377 13.477C47.4715 13.1742 50.7218 11.4998 53.8913 8.52419C54.4709 7.98818 54.9075 7.58595 55.2445 7.29204C55.532 7.04125 55.7258 6.88841 55.8591 6.80136C55.8594 6.80202 55.8597 6.80269 55.86 6.80336C56.0313 7.334 56.6441 8.66531 57.1928 9.8336C58.7091 13.0777 61.7866 15.4433 65.8528 16.8196C69.9197 18.1961 75.0104 18.5971 80.6383 17.8945L80.6396 17.8944L81.7263 17.7558ZM56.0006 6.72375C56.0006 6.72382 55.9993 6.72429 55.9969 6.72492C55.9995 6.724 56.0007 6.72368 56.0006 6.72375ZM55.7809 6.65357C55.7809 6.65356 55.7812 6.65397 55.7819 6.65482L55.7809 6.65357Z" fill="#402E24" stroke="#402E24"/>
</svg>
