<svg width="283" height="259" viewBox="0 0 283 259" fill="none" xmlns="http://www.w3.org/2000/svg">
<circle cx="132" cy="130" r="125" fill="white"/>
<path d="M80.3441 93.6491C80.2621 94.5529 79.9146 95.4119 79.3457 96.1177C78.7768 96.8234 78.0121 97.3441 77.1481 97.614C76.2841 97.8839 75.3597 97.8908 74.4919 97.6338C73.624 97.3769 72.8515 96.8677 72.2722 96.1705C71.6929 95.4734 71.3327 94.6196 71.2372 93.7172C71.1417 92.8148 71.3152 91.9042 71.7357 91.1006C72.1562 90.2971 72.8048 89.6366 73.5996 89.2027C74.3944 88.7688 75.2996 88.581 76.2008 88.663C76.8 88.7159 77.3828 88.8871 77.9157 89.1667C78.4487 89.4463 78.9213 89.8287 79.3063 90.2921C79.6913 90.7555 79.9813 91.2906 80.1594 91.8667C80.3375 92.4428 80.4003 93.0486 80.3441 93.6491ZM81.2929 87.573C74.3453 80.5335 60.3422 78.9256 33.1284 90.7165C33.0083 90.7647 32.618 90.9453 32.612 90.9574C32.2476 91.1854 31.9465 91.502 31.7366 91.8778C31.5266 92.2536 31.4147 92.6764 31.4111 93.1072C31.402 93.4436 31.4613 93.7784 31.5854 94.0912C31.7094 94.404 31.8956 94.6881 32.1327 94.9264C32.3698 95.1647 32.6527 95.3521 32.9643 95.4773C33.2758 95.6025 33.6095 95.6627 33.9451 95.6544C34.3576 95.5944 34.761 95.4832 35.146 95.3232C39.1452 93.8539 58.835 88.4763 69.1932 97.8584C69.5295 98.1354 69.8477 98.4185 70.16 98.7196C70.4722 99.0207 70.7605 99.3218 71.0127 99.6831C80.3501 110.089 74.9578 129.829 73.4867 133.833C73.3201 134.217 73.2069 134.623 73.1504 135.038C73.1405 135.375 73.1992 135.71 73.3229 136.023C73.4466 136.337 73.6327 136.622 73.8698 136.861C74.1069 137.1 74.3901 137.288 74.7021 137.413C75.0141 137.539 75.3484 137.599 75.6844 137.591C76.1144 137.59 76.5369 137.478 76.912 137.267C77.2871 137.057 77.6024 136.753 77.8281 136.386C77.9192 136.221 77.9995 136.05 78.0683 135.875C89.8737 108.601 88.3065 94.5524 81.2929 87.573Z" fill="#373E66"/>
<path d="M94.8097 80.3827C94.7055 81.5567 94.2567 82.6735 93.5198 83.5918C92.783 84.51 91.7912 85.1887 90.6699 85.5419C89.5486 85.8952 88.348 85.9071 87.2199 85.5763C86.0918 85.2455 85.0868 84.5868 84.3319 83.6834C83.577 82.7799 83.1061 81.6724 82.9787 80.5007C82.8512 79.3289 83.073 78.1456 83.6159 77.1002C84.1589 76.0548 84.9987 75.1943 86.0291 74.6274C87.0596 74.0605 88.2345 73.8127 89.4054 73.9152C90.9765 74.0559 92.4278 74.8159 93.441 76.0283C94.4541 77.2408 94.9463 78.8067 94.8097 80.3827Z" fill="#373E66"/>
<path d="M67.728 104.711C67.6733 105.327 67.4379 105.912 67.0513 106.394C66.6648 106.875 66.1446 107.231 65.5565 107.416C64.9683 107.601 64.3387 107.607 63.7473 107.433C63.1558 107.259 62.629 106.913 62.2335 106.439C61.838 105.965 61.5916 105.384 61.5254 104.77C61.4591 104.155 61.5761 103.535 61.8615 102.987C62.1469 102.439 62.5879 101.988 63.1287 101.692C63.6695 101.395 64.2858 101.266 64.8998 101.321C65.3078 101.356 65.7047 101.472 66.0679 101.662C66.4311 101.852 66.7533 102.112 67.0161 102.427C67.2788 102.742 67.477 103.106 67.5992 103.498C67.7214 103.89 67.7651 104.302 67.728 104.711Z" fill="#373E66"/>
<path d="M58.9612 112.624C58.9212 113.087 58.745 113.528 58.4549 113.891C58.1648 114.254 57.7738 114.522 57.3316 114.662C56.8893 114.801 56.4157 114.806 55.9706 114.676C55.5256 114.545 55.1292 114.285 54.8317 113.928C54.5342 113.572 54.349 113.135 54.2995 112.672C54.25 112.21 54.3385 111.743 54.5537 111.331C54.769 110.919 55.1013 110.581 55.5086 110.359C55.9158 110.136 56.3797 110.04 56.8415 110.083C57.4574 110.141 58.0255 110.44 58.4224 110.916C58.8193 111.392 59.0129 112.006 58.9612 112.624Z" fill="#373E66"/>
<path d="M176.007 87.886H170.41C170.013 87.9153 169.643 88.1006 169.381 88.4016C169.119 88.7026 168.986 89.0951 169.011 89.4938V108.288H149.652V89.4938C149.676 89.0951 149.543 88.7026 149.281 88.4016C149.019 88.1006 148.65 87.9153 148.252 87.886H142.596C142.203 87.9255 141.839 88.1137 141.579 88.4124C141.319 88.711 141.183 89.0977 141.197 89.4938V137.067C141.183 137.463 141.319 137.85 141.579 138.148C141.839 138.447 142.203 138.635 142.596 138.675H148.252C148.65 138.645 149.019 138.46 149.281 138.159C149.543 137.858 149.676 137.466 149.652 137.067V117.466H169.011V137.055C168.986 137.453 169.119 137.846 169.381 138.147C169.643 138.448 170.013 138.633 170.41 138.663H176.007C176.4 138.623 176.763 138.435 177.023 138.136C177.283 137.838 177.42 137.451 177.406 137.055V89.4818C177.417 89.0877 177.279 88.704 177.019 88.408C176.759 88.1119 176.398 87.9254 176.007 87.886Z" fill="#373E66"/>
<path d="M135.252 87.886H110.488C110.091 87.9153 109.721 88.1006 109.459 88.4016C109.197 88.7026 109.064 89.0951 109.089 89.4938V137.067C109.064 137.466 109.197 137.858 109.459 138.159C109.721 138.46 110.091 138.645 110.488 138.675H116.085C116.478 138.635 116.842 138.447 117.101 138.148C117.361 137.85 117.498 137.463 117.484 137.067V117.472H132.274C132.664 117.431 133.024 117.244 133.282 116.948C133.541 116.652 133.678 116.269 133.667 115.876V109.974C133.681 109.578 133.544 109.191 133.284 108.893C133.024 108.594 132.661 108.406 132.268 108.366H117.478V96.9971H135.252C135.646 96.9662 136.012 96.782 136.273 96.4838C136.533 96.1856 136.667 95.7971 136.645 95.4013V89.4938C136.67 89.0961 136.538 88.7045 136.277 88.4036C136.016 88.1028 135.648 87.9168 135.252 87.886Z" fill="#373E66"/>
<path d="M193.955 87.886H188.292C187.899 87.9255 187.536 88.1137 187.276 88.4124C187.016 88.711 186.879 89.0977 186.893 89.4938V137.067C186.879 137.463 187.016 137.85 187.276 138.148C187.536 138.447 187.899 138.635 188.292 138.675H193.955C194.348 138.635 194.712 138.447 194.972 138.148C195.232 137.85 195.368 137.463 195.354 137.067V89.4938C195.368 89.0977 195.232 88.711 194.972 88.4124C194.712 88.1137 194.348 87.9255 193.955 87.886Z" fill="#373E66"/>
<path d="M228.795 147.93H53.947V148.28H228.795V147.93Z" fill="#373E66"/>
<path d="M53.947 155.578C53.947 155.529 53.9567 155.481 53.9755 155.436C53.9943 155.391 54.0218 155.35 54.0564 155.316C54.0911 155.282 54.1322 155.255 54.1773 155.237C54.2224 155.219 54.2707 155.21 54.3193 155.211H62.1256C62.2227 155.211 62.3159 155.249 62.3846 155.318C62.4533 155.387 62.4918 155.481 62.4918 155.578V156.674C62.4918 156.771 62.4533 156.865 62.3846 156.934C62.3159 157.003 62.2227 157.041 62.1256 157.041H55.9526V161.546H61.1408C61.2386 161.549 61.3315 161.589 61.4007 161.658C61.4699 161.728 61.5101 161.821 61.5131 161.919V162.991C61.51 163.089 61.4696 163.181 61.4003 163.249C61.3309 163.318 61.238 163.357 61.1408 163.358H55.9526V168.489C55.9495 168.586 55.9092 168.679 55.8398 168.747C55.7705 168.816 55.6776 168.855 55.5803 168.856H54.3193C54.2707 168.857 54.2224 168.848 54.1773 168.83C54.1322 168.812 54.0911 168.785 54.0564 168.751C54.0218 168.717 53.9943 168.676 53.9755 168.631C53.9567 168.586 53.947 168.538 53.947 168.489V155.578Z" fill="#373E66"/>
<path d="M67.0557 159.655C67.9898 159.635 68.9087 159.894 69.6949 160.4C70.481 160.907 71.0988 161.637 71.469 162.497C71.8392 163.357 71.9452 164.309 71.7732 165.23C71.6013 166.15 71.1593 166.999 70.5038 167.667C69.8483 168.334 69.0091 168.791 68.0935 168.978C67.178 169.164 66.2277 169.073 65.3642 168.715C64.5007 168.357 63.7633 167.749 63.2463 166.969C62.7293 166.188 62.4562 165.271 62.462 164.334C62.4619 163.105 62.9435 161.926 63.803 161.051C64.6625 160.175 65.8308 159.674 67.0557 159.655ZM67.0557 167.218C67.4213 167.211 67.7817 167.13 68.1153 166.979C68.4489 166.829 68.7488 166.613 68.9972 166.343C69.2455 166.074 69.4371 165.757 69.5606 165.412C69.6841 165.067 69.7369 164.7 69.7158 164.334C69.7403 163.967 69.6895 163.599 69.5663 163.252C69.4431 162.906 69.2503 162.588 68.9997 162.32C68.7492 162.051 68.4463 161.837 68.1098 161.69C67.7733 161.544 67.4105 161.468 67.0437 161.468C66.6769 161.468 66.314 161.544 65.9775 161.69C65.641 161.837 65.3381 162.051 65.0876 162.32C64.8371 162.588 64.6442 162.906 64.521 163.252C64.3979 163.599 64.347 163.967 64.3715 164.334C64.3513 164.702 64.4054 165.07 64.5306 165.417C64.6559 165.763 64.8497 166.081 65.1004 166.35C65.3511 166.619 65.6536 166.835 65.9896 166.984C66.3256 167.134 66.6882 167.213 67.0557 167.218Z" fill="#373E66"/>
<path d="M73.5288 155.62C73.5318 155.508 73.5777 155.401 73.657 155.321C73.7363 155.242 73.843 155.196 73.9552 155.193H75.06C75.1718 155.199 75.2777 155.245 75.3574 155.324C75.4371 155.403 75.4852 155.508 75.4924 155.62V168.411C75.4878 168.524 75.4407 168.631 75.3604 168.71C75.2801 168.79 75.1727 168.836 75.06 168.838H73.9732C73.8601 168.838 73.7517 168.793 73.6717 168.713C73.5917 168.633 73.5468 168.524 73.5468 168.411L73.5288 155.62Z" fill="#373E66"/>
<path d="M78.8369 155.62C78.8399 155.508 78.8858 155.401 78.9651 155.321C79.0445 155.242 79.1511 155.196 79.2633 155.193H80.3501C80.4619 155.199 80.5678 155.245 80.6475 155.324C80.7272 155.403 80.7752 155.508 80.7825 155.62V163.244L84.2412 160.107C84.3877 159.946 84.5894 159.847 84.8057 159.83H86.2228C86.2906 159.834 86.3559 159.857 86.4109 159.897C86.4658 159.937 86.5082 159.992 86.5329 160.055C86.5575 160.119 86.5635 160.188 86.5501 160.255C86.5366 160.322 86.5043 160.383 86.457 160.432L82.8541 163.864L86.6612 168.23C86.8353 168.447 86.7993 168.832 86.409 168.832H84.7877C84.711 168.835 84.6348 168.82 84.5643 168.79C84.4938 168.76 84.4307 168.715 84.3793 168.658L80.7765 164.442V168.381C80.7719 168.494 80.7248 168.601 80.6445 168.68C80.5642 168.76 80.4568 168.805 80.3441 168.808H79.2633C79.1502 168.808 79.0417 168.763 78.9618 168.683C78.8818 168.603 78.8369 168.494 78.8369 168.381V155.62Z" fill="#373E66"/>
<path d="M92.3658 159.655C92.9102 159.64 93.452 159.737 93.9579 159.939C94.4638 160.142 94.9231 160.446 95.3077 160.832C95.6923 161.219 95.994 161.681 96.1944 162.189C96.3948 162.697 96.4896 163.24 96.473 163.786C96.473 163.943 96.473 164.256 96.431 164.388C96.4249 164.493 96.3794 164.592 96.3037 164.665C96.2279 164.737 96.1275 164.778 96.0227 164.78H89.8197C89.8645 165.457 90.1688 166.092 90.6691 166.55C91.1693 167.007 91.8268 167.254 92.5039 167.237C93.3011 167.241 94.0761 166.974 94.7016 166.478C94.8938 166.339 95.0679 166.279 95.224 166.514L95.7525 167.333C95.9086 167.526 95.9866 167.706 95.7104 167.935C94.7679 168.685 93.5926 169.08 92.3898 169.049C89.6636 169.049 87.8982 166.905 87.8982 164.328C87.8982 161.751 89.6636 159.655 92.3658 159.655ZM94.5455 163.359C94.5355 163.078 94.47 162.802 94.353 162.546C94.2359 162.291 94.0696 162.062 93.8635 161.871C93.6575 161.681 93.4158 161.533 93.1525 161.437C92.8893 161.341 92.6096 161.298 92.3297 161.311C91.7439 161.278 91.168 161.473 90.721 161.854C90.274 162.235 89.99 162.774 89.9278 163.359H94.5455Z" fill="#373E66"/>
<path d="M98.7849 155.62C98.7879 155.508 98.8338 155.401 98.9131 155.321C98.9924 155.242 99.0991 155.196 99.2112 155.193H100.28C100.392 155.199 100.498 155.245 100.577 155.324C100.657 155.403 100.705 155.508 100.712 155.62V160.57C101.457 159.984 102.372 159.656 103.319 159.637C105.865 159.637 106.795 161.444 106.795 163.888V168.411C106.792 168.523 106.746 168.63 106.667 168.71C106.588 168.789 106.481 168.835 106.369 168.838H105.282C105.168 168.838 105.059 168.794 104.978 168.714C104.898 168.634 104.851 168.525 104.85 168.411V163.846C104.85 162.365 104.249 161.492 103.048 161.492C102.577 161.482 102.111 161.598 101.699 161.828C101.286 162.057 100.942 162.392 100.7 162.799V168.411C100.702 168.47 100.692 168.528 100.67 168.583C100.647 168.637 100.614 168.686 100.571 168.726C100.529 168.767 100.478 168.798 100.423 168.817C100.367 168.836 100.308 168.844 100.25 168.838H99.1812C99.0681 168.838 98.9597 168.793 98.8798 168.713C98.7998 168.633 98.7549 168.524 98.7549 168.411L98.7849 155.62Z" fill="#373E66"/>
<path d="M113.365 159.655C113.909 159.64 114.451 159.737 114.957 159.939C115.463 160.142 115.922 160.446 116.306 160.832C116.691 161.219 116.993 161.681 117.193 162.189C117.394 162.697 117.488 163.24 117.472 163.786C117.472 163.943 117.472 164.256 117.43 164.388C117.422 164.493 117.376 164.591 117.301 164.663C117.225 164.735 117.126 164.777 117.021 164.78H110.819C110.863 165.457 111.168 166.092 111.668 166.55C112.168 167.007 112.826 167.254 113.503 167.237C114.3 167.241 115.075 166.974 115.7 166.478C115.893 166.339 116.067 166.279 116.223 166.514L116.751 167.333C116.907 167.526 116.985 167.706 116.709 167.935C115.767 168.685 114.591 169.08 113.389 169.049C110.662 169.049 108.897 166.905 108.897 164.328C108.897 161.751 110.662 159.655 113.365 159.655ZM115.544 163.359C115.534 163.078 115.469 162.802 115.352 162.546C115.235 162.291 115.068 162.062 114.862 161.871C114.656 161.681 114.415 161.533 114.151 161.437C113.888 161.341 113.608 161.298 113.329 161.311C112.743 161.278 112.167 161.473 111.72 161.854C111.273 162.235 110.989 162.774 110.927 163.359H115.544Z" fill="#373E66"/>
<path d="M119.898 155.62C119.902 155.507 119.949 155.4 120.03 155.321C120.11 155.242 120.217 155.196 120.33 155.193H121.417C121.528 155.2 121.632 155.247 121.711 155.326C121.789 155.405 121.836 155.509 121.843 155.62V168.411C121.839 168.523 121.792 168.629 121.713 168.708C121.634 168.788 121.529 168.834 121.417 168.838H120.33C120.216 168.838 120.107 168.794 120.026 168.714C119.946 168.634 119.899 168.525 119.898 168.411V155.62Z" fill="#373E66"/>
<path d="M124.509 168.158C124.43 168.113 124.369 168.04 124.341 167.953C124.312 167.866 124.316 167.772 124.353 167.688L124.762 166.851C124.79 166.8 124.829 166.756 124.876 166.721C124.923 166.687 124.977 166.663 125.034 166.652C125.091 166.64 125.15 166.642 125.207 166.655C125.263 166.669 125.316 166.694 125.362 166.731C126.028 167.161 126.803 167.391 127.596 167.393C128.358 167.393 128.797 167.026 128.797 166.52C128.797 165.918 128.112 165.526 126.869 164.96C125.488 164.358 124.467 163.593 124.467 162.112C124.467 160.98 125.266 159.655 127.47 159.655C128.388 159.632 129.296 159.861 130.094 160.317C130.2 160.386 130.279 160.49 130.314 160.612C130.349 160.734 130.339 160.865 130.286 160.98L129.98 161.582C129.953 161.634 129.917 161.681 129.871 161.719C129.826 161.756 129.774 161.784 129.718 161.801C129.661 161.817 129.602 161.822 129.544 161.814C129.486 161.806 129.43 161.787 129.379 161.757C128.778 161.47 128.123 161.317 127.458 161.305C126.677 161.305 126.311 161.696 126.311 162.106C126.311 162.708 126.953 163.045 127.848 163.431C129.499 164.135 130.742 164.737 130.742 166.442C130.742 167.845 129.541 169.073 127.536 169.073C126.457 169.09 125.399 168.77 124.509 168.158Z" fill="#373E66"/>
<path d="M136.735 159.655C137.28 159.64 137.821 159.737 138.327 159.939C138.833 160.142 139.292 160.446 139.677 160.832C140.062 161.219 140.363 161.681 140.564 162.189C140.764 162.697 140.859 163.24 140.842 163.786C140.842 163.943 140.842 164.256 140.8 164.388C140.793 164.493 140.747 164.591 140.672 164.663C140.596 164.735 140.496 164.777 140.392 164.78H134.189C134.234 165.457 134.538 166.092 135.038 166.55C135.539 167.007 136.196 167.254 136.873 167.237C137.67 167.241 138.446 166.974 139.071 166.478C139.263 166.339 139.437 166.279 139.593 166.514L140.122 167.333C140.278 167.526 140.356 167.706 140.08 167.935C139.137 168.685 137.962 169.08 136.759 169.049C134.033 169.049 132.268 166.905 132.268 164.328C132.268 161.751 134.033 159.655 136.735 159.655ZM138.915 163.359C138.904 163.078 138.838 162.802 138.721 162.547C138.603 162.293 138.437 162.063 138.231 161.873C138.025 161.683 137.784 161.535 137.521 161.439C137.258 161.342 136.979 161.299 136.699 161.311C136.113 161.277 135.536 161.471 135.089 161.852C134.642 162.233 134.358 162.773 134.297 163.359H138.915Z" fill="#373E66"/>
<path d="M142.914 156.614C142.91 156.442 142.94 156.272 143.003 156.112C143.065 155.952 143.158 155.806 143.277 155.683C143.396 155.56 143.539 155.462 143.696 155.394C143.853 155.326 144.022 155.291 144.193 155.289C144.373 155.277 144.553 155.302 144.723 155.363C144.893 155.423 145.048 155.518 145.18 155.641C145.312 155.765 145.417 155.914 145.488 156.08C145.56 156.245 145.597 156.424 145.597 156.605C145.597 156.786 145.56 156.964 145.488 157.13C145.417 157.296 145.312 157.445 145.18 157.568C145.048 157.692 144.893 157.787 144.723 157.847C144.553 157.908 144.373 157.933 144.193 157.921C144.023 157.92 143.855 157.885 143.699 157.819C143.543 157.753 143.401 157.656 143.282 157.535C143.163 157.413 143.069 157.269 143.006 157.111C142.943 156.953 142.912 156.784 142.914 156.614ZM143.226 160.281C143.229 160.168 143.275 160.061 143.354 159.98C143.433 159.9 143.54 159.852 143.653 159.848H144.716C144.827 159.855 144.932 159.903 145.011 159.983C145.09 160.063 145.136 160.169 145.142 160.281V168.429C145.139 168.541 145.093 168.648 145.014 168.728C144.934 168.807 144.828 168.853 144.716 168.856H143.629C143.573 168.856 143.517 168.845 143.466 168.824C143.414 168.802 143.367 168.771 143.327 168.731C143.288 168.692 143.256 168.644 143.235 168.593C143.213 168.541 143.202 168.485 143.202 168.429L143.226 160.281Z" fill="#373E66"/>
<path d="M148.132 160.281C148.135 160.168 148.181 160.061 148.26 159.98C148.339 159.9 148.446 159.852 148.559 159.848H149.027C149.111 159.84 149.196 159.864 149.263 159.916C149.331 159.967 149.377 160.041 149.393 160.125L149.67 160.902C150.057 160.497 150.523 160.177 151.04 159.962C151.557 159.748 152.113 159.643 152.672 159.655C155.416 159.655 156.155 161.564 156.155 163.906V168.429C156.15 168.541 156.104 168.647 156.025 168.726C155.946 168.805 155.84 168.852 155.728 168.856H154.642C154.528 168.856 154.419 168.812 154.338 168.732C154.257 168.652 154.211 168.543 154.209 168.429V163.828C154.209 162.365 153.609 161.51 152.444 161.51C151.969 161.501 151.5 161.617 151.084 161.846C150.668 162.076 150.319 162.41 150.072 162.816V168.429C150.072 168.724 149.916 168.856 149.543 168.856H148.559C148.503 168.856 148.447 168.845 148.396 168.824C148.344 168.802 148.297 168.771 148.257 168.731C148.218 168.691 148.186 168.644 148.165 168.592C148.143 168.541 148.132 168.485 148.132 168.429V160.281Z" fill="#373E66"/>
<path d="M158.689 168.158C158.646 168.136 158.608 168.106 158.576 168.07C158.545 168.033 158.521 167.991 158.506 167.945C158.491 167.899 158.485 167.851 158.488 167.802C158.492 167.754 158.505 167.707 158.527 167.664L158.935 166.827C158.963 166.776 159.002 166.732 159.049 166.698C159.097 166.663 159.15 166.639 159.208 166.628C159.265 166.616 159.324 166.618 159.38 166.631C159.437 166.645 159.49 166.671 159.536 166.707C160.204 167.137 160.981 167.367 161.775 167.369C162.532 167.369 162.976 167.002 162.976 166.496C162.976 165.894 162.298 165.502 161.055 164.936C159.674 164.334 158.623 163.569 158.623 162.088C158.623 160.956 159.421 159.631 161.595 159.631C162.514 159.608 163.421 159.837 164.219 160.293C164.326 160.362 164.405 160.466 164.441 160.588C164.477 160.709 164.469 160.84 164.417 160.956L164.105 161.558C164.08 161.611 164.043 161.658 163.998 161.697C163.953 161.735 163.9 161.763 163.844 161.78C163.787 161.796 163.728 161.8 163.669 161.792C163.611 161.784 163.555 161.764 163.505 161.733C162.901 161.447 162.244 161.293 161.577 161.281C160.803 161.281 160.43 161.672 160.43 162.082C160.43 162.684 161.073 163.021 161.967 163.407C163.619 164.111 164.862 164.713 164.862 166.418C164.862 167.821 163.661 169.049 161.655 169.049C160.599 169.059 159.565 168.749 158.689 168.158Z" fill="#373E66"/>
<path d="M167.81 161.51H166.777C166.663 161.508 166.555 161.462 166.475 161.381C166.395 161.3 166.351 161.19 166.351 161.076V160.281C166.348 160.224 166.358 160.167 166.378 160.114C166.398 160.061 166.43 160.012 166.47 159.971C166.51 159.931 166.558 159.899 166.611 159.877C166.663 159.856 166.72 159.846 166.777 159.848H167.81V157.337C167.81 157.223 167.855 157.113 167.934 157.032C168.014 156.951 168.123 156.905 168.236 156.903H169.335C169.39 156.905 169.445 156.917 169.495 156.94C169.545 156.962 169.591 156.995 169.629 157.035C169.667 157.075 169.696 157.123 169.716 157.174C169.736 157.226 169.745 157.281 169.743 157.337V159.836H172.115C172.172 159.835 172.229 159.846 172.282 159.867C172.335 159.889 172.383 159.92 172.423 159.961C172.463 160.001 172.495 160.049 172.516 160.102C172.538 160.155 172.549 160.212 172.548 160.269V161.064C172.543 161.178 172.496 161.285 172.416 161.366C172.336 161.446 172.229 161.493 172.115 161.498H169.743V166.315C169.743 167.074 170.038 167.231 170.464 167.231C170.973 167.213 171.469 167.066 171.905 166.803C171.95 166.771 172.002 166.75 172.056 166.743C172.11 166.735 172.166 166.742 172.217 166.761C172.269 166.78 172.315 166.811 172.352 166.852C172.388 166.893 172.414 166.942 172.428 166.996L172.782 167.917C172.878 168.146 172.782 168.303 172.566 168.441C171.799 168.854 170.944 169.075 170.074 169.085C168.272 169.085 167.804 167.995 167.804 166.394L167.81 161.51Z" fill="#373E66"/>
<path d="M174.493 156.614C174.489 156.442 174.52 156.271 174.582 156.111C174.645 155.95 174.739 155.804 174.859 155.681C174.978 155.558 175.121 155.46 175.279 155.392C175.437 155.325 175.607 155.29 175.778 155.289C175.958 155.277 176.138 155.302 176.308 155.363C176.478 155.423 176.633 155.518 176.765 155.641C176.897 155.765 177.002 155.914 177.073 156.08C177.145 156.245 177.182 156.424 177.182 156.605C177.182 156.786 177.145 156.964 177.073 157.13C177.002 157.296 176.897 157.445 176.765 157.568C176.633 157.692 176.478 157.787 176.308 157.847C176.138 157.908 175.958 157.933 175.778 157.921C175.608 157.921 175.439 157.887 175.282 157.821C175.125 157.755 174.983 157.658 174.863 157.537C174.744 157.415 174.649 157.271 174.586 157.113C174.522 156.954 174.491 156.785 174.493 156.614ZM174.806 160.281C174.81 160.169 174.856 160.062 174.935 159.982C175.014 159.901 175.12 159.854 175.232 159.848H176.325C176.436 159.856 176.54 159.905 176.619 159.984C176.697 160.064 176.744 160.17 176.751 160.281V168.429C176.747 168.541 176.7 168.647 176.621 168.726C176.542 168.806 176.436 168.852 176.325 168.856H175.232C175.119 168.855 175.012 168.809 174.932 168.73C174.852 168.65 174.807 168.542 174.806 168.429V160.281Z" fill="#373E66"/>
<path d="M180.234 161.51H179.201C179.088 161.508 178.979 161.462 178.899 161.381C178.82 161.3 178.775 161.19 178.775 161.076V160.281C178.772 160.224 178.782 160.167 178.802 160.114C178.823 160.061 178.854 160.012 178.894 159.971C178.934 159.931 178.982 159.899 179.035 159.877C179.087 159.856 179.144 159.846 179.201 159.848H180.234V157.337C180.234 157.223 180.279 157.113 180.358 157.032C180.438 156.951 180.547 156.905 180.66 156.903H181.765C181.82 156.905 181.875 156.917 181.925 156.94C181.976 156.962 182.021 156.995 182.059 157.035C182.097 157.075 182.127 157.123 182.146 157.174C182.166 157.226 182.175 157.281 182.174 157.337V159.836H184.545C184.602 159.835 184.659 159.846 184.712 159.867C184.765 159.889 184.813 159.92 184.853 159.961C184.893 160.001 184.925 160.049 184.946 160.102C184.968 160.155 184.979 160.212 184.978 160.269V161.064C184.973 161.178 184.926 161.285 184.846 161.366C184.766 161.446 184.659 161.493 184.545 161.498H182.174V166.315C182.174 167.074 182.468 167.231 182.894 167.231C183.403 167.213 183.899 167.066 184.335 166.803C184.38 166.771 184.432 166.75 184.486 166.743C184.54 166.735 184.596 166.742 184.647 166.761C184.699 166.78 184.745 166.811 184.782 166.852C184.818 166.893 184.844 166.942 184.858 166.996L185.206 167.917C185.308 168.146 185.206 168.303 184.996 168.441C184.229 168.854 183.374 169.075 182.504 169.085C180.702 169.085 180.234 167.995 180.234 166.394V161.51Z" fill="#373E66"/>
<path d="M187.037 160.281C187.044 160.17 187.091 160.064 187.17 159.984C187.248 159.905 187.352 159.856 187.464 159.848H188.551C188.664 159.852 188.771 159.899 188.851 159.98C188.931 160.06 188.978 160.168 188.983 160.281V165.099C188.983 166.58 189.583 167.243 190.73 167.243C191.19 167.243 191.639 167.101 192.015 166.836C192.392 166.571 192.677 166.195 192.832 165.761V160.305C192.832 159.932 193.006 159.872 193.336 159.872H194.327C194.442 159.876 194.552 159.922 194.635 160.002C194.718 160.082 194.769 160.19 194.778 160.305V168.453C194.771 168.568 194.721 168.677 194.637 168.757C194.554 168.836 194.443 168.881 194.327 168.88H193.859C193.631 168.88 193.529 168.724 193.45 168.513L193.222 167.869C192.867 168.268 192.428 168.583 191.937 168.791C191.446 168.999 190.915 169.096 190.382 169.073C187.698 169.073 187.037 167.267 187.037 164.936V160.281Z" fill="#373E66"/>
<path d="M198.272 161.51H197.246C197.131 161.508 197.022 161.462 196.942 161.381C196.861 161.3 196.815 161.191 196.813 161.076V160.281C196.811 160.224 196.82 160.166 196.841 160.112C196.862 160.059 196.893 160.01 196.934 159.969C196.975 159.928 197.023 159.896 197.077 159.876C197.131 159.855 197.188 159.845 197.246 159.848H198.272V157.337C198.274 157.222 198.32 157.113 198.401 157.032C198.481 156.951 198.59 156.905 198.705 156.903H199.81C199.865 156.905 199.919 156.917 199.97 156.94C200.02 156.962 200.065 156.995 200.103 157.035C200.141 157.075 200.171 157.123 200.191 157.174C200.21 157.226 200.219 157.281 200.218 157.337V159.836H202.59C202.646 159.835 202.703 159.846 202.755 159.867C202.808 159.889 202.855 159.921 202.895 159.961C202.935 160.002 202.966 160.05 202.987 160.103C203.008 160.156 203.018 160.212 203.016 160.269V161.064C203.013 161.177 202.967 161.285 202.888 161.365C202.809 161.446 202.702 161.493 202.59 161.498H200.218V166.315C200.218 167.074 200.512 167.231 200.938 167.231C201.447 167.211 201.942 167.064 202.38 166.803C202.424 166.771 202.476 166.75 202.53 166.743C202.585 166.735 202.64 166.742 202.692 166.761C202.743 166.78 202.789 166.811 202.826 166.852C202.863 166.893 202.889 166.942 202.902 166.996L203.25 167.917C203.346 168.146 203.25 168.303 203.04 168.441C202.273 168.854 201.418 169.075 200.548 169.085C198.747 169.085 198.272 167.995 198.272 166.394V161.51Z" fill="#373E66"/>
<path d="M206.169 161.51H205.136C205.022 161.508 204.914 161.462 204.834 161.381C204.754 161.3 204.709 161.19 204.709 161.076V160.281C204.707 160.224 204.716 160.167 204.737 160.114C204.757 160.061 204.788 160.012 204.828 159.971C204.868 159.931 204.916 159.899 204.969 159.877C205.022 159.856 205.079 159.846 205.136 159.848H206.169V157.337C206.169 157.223 206.213 157.113 206.293 157.032C206.373 156.951 206.481 156.905 206.595 156.903H207.706C207.761 156.905 207.815 156.917 207.866 156.94C207.916 156.962 207.962 156.995 208 157.035C208.037 157.075 208.067 157.123 208.087 157.174C208.106 157.226 208.116 157.281 208.114 157.337V159.836H210.486C210.543 159.835 210.599 159.846 210.652 159.867C210.704 159.889 210.752 159.921 210.791 159.961C210.831 160.002 210.863 160.05 210.883 160.103C210.904 160.156 210.914 160.212 210.912 160.269V161.064C210.909 161.177 210.864 161.285 210.785 161.365C210.705 161.446 210.599 161.493 210.486 161.498H208.114V166.315C208.114 167.074 208.402 167.231 208.835 167.231C209.341 167.212 209.835 167.065 210.27 166.803C210.315 166.771 210.367 166.751 210.422 166.743C210.477 166.736 210.532 166.742 210.584 166.761C210.636 166.78 210.683 166.811 210.72 166.852C210.757 166.893 210.784 166.942 210.798 166.996L211.147 167.917C211.243 168.146 211.147 168.303 210.93 168.441C210.166 168.855 209.313 169.076 208.444 169.085C206.643 169.085 206.169 167.995 206.169 166.394V161.51Z" fill="#373E66"/>
<path d="M216.923 159.655C217.467 159.641 218.008 159.738 218.514 159.941C219.019 160.144 219.477 160.448 219.861 160.834C220.245 161.221 220.546 161.682 220.746 162.19C220.946 162.697 221.041 163.24 221.025 163.786C221.022 163.987 221.008 164.188 220.983 164.388C220.976 164.493 220.931 164.592 220.855 164.664C220.779 164.737 220.679 164.778 220.574 164.78H214.371C214.417 165.457 214.722 166.09 215.222 166.548C215.722 167.005 216.379 167.252 217.055 167.236C217.853 167.241 218.628 166.973 219.253 166.478C219.451 166.339 219.625 166.279 219.782 166.514L220.304 167.333C220.46 167.526 220.538 167.706 220.262 167.935C219.32 168.686 218.144 169.08 216.941 169.049C214.221 169.049 212.45 166.905 212.45 164.328C212.45 161.751 214.221 159.655 216.923 159.655ZM219.097 163.358C219.087 163.078 219.022 162.802 218.905 162.546C218.787 162.291 218.621 162.062 218.415 161.871C218.209 161.681 217.967 161.533 217.704 161.437C217.441 161.341 217.161 161.298 216.881 161.311C216.295 161.275 215.717 161.468 215.27 161.85C214.822 162.232 214.539 162.772 214.479 163.358H219.097Z" fill="#373E66"/>
<path d="M223.883 161.51H222.85C222.736 161.508 222.628 161.462 222.548 161.381C222.468 161.3 222.424 161.19 222.424 161.076V160.281C222.421 160.224 222.431 160.167 222.451 160.114C222.471 160.061 222.503 160.012 222.543 159.971C222.583 159.931 222.631 159.899 222.684 159.877C222.736 159.856 222.793 159.846 222.85 159.848H223.883V157.337C223.883 157.223 223.928 157.113 224.007 157.032C224.087 156.951 224.196 156.905 224.309 156.903H225.414C225.47 156.904 225.525 156.916 225.576 156.938C225.627 156.96 225.673 156.993 225.712 157.033C225.75 157.073 225.78 157.121 225.801 157.173C225.821 157.225 225.83 157.281 225.828 157.337V159.836H228.182C228.239 159.836 228.295 159.847 228.347 159.869C228.399 159.891 228.446 159.923 228.486 159.963C228.526 160.003 228.557 160.051 228.578 160.104C228.599 160.156 228.609 160.213 228.609 160.269V161.064C228.604 161.177 228.558 161.284 228.479 161.364C228.4 161.444 228.295 161.492 228.182 161.498H225.81V166.315C225.81 167.074 226.099 167.231 226.525 167.231C227.034 167.213 227.53 167.066 227.966 166.803C228.011 166.771 228.063 166.75 228.117 166.743C228.171 166.735 228.227 166.742 228.278 166.761C228.33 166.78 228.376 166.811 228.413 166.852C228.449 166.893 228.475 166.942 228.489 166.996L228.843 167.917C228.939 168.146 228.843 168.303 228.627 168.441C227.862 168.853 227.009 169.074 226.141 169.085C224.339 169.085 223.865 167.995 223.865 166.394L223.883 161.51Z" fill="#373E66"/>
</svg>
