<svg width="128" height="36" viewBox="0 0 128 36" fill="none" xmlns="http://www.w3.org/2000/svg">
<path d="M9.592 29.396C8.224 29.396 7.06 29.204 6.1 28.82C5.164 28.412 4.324 27.776 3.58 26.912L3.184 29H0.0880001V20.288H3.364C3.508 22.688 4.096 24.392 5.128 25.4C6.16 26.384 7.528 26.876 9.232 26.876C10.6 26.876 11.692 26.588 12.508 26.012C13.324 25.436 13.732 24.548 13.732 23.348C13.732 22.364 13.456 21.56 12.904 20.936C12.376 20.288 11.62 19.724 10.636 19.244C9.676 18.74 8.548 18.224 7.252 17.696C5.764 17.072 4.492 16.436 3.436 15.788C2.38 15.14 1.576 14.36 1.024 13.448C0.472 12.536 0.196 11.384 0.196 9.992C0.196 7.664 0.904 5.864 2.32 4.592C3.76 3.32 5.68 2.684 8.08 2.684C10.456 2.684 12.388 3.356 13.876 4.7L14.164 3.08H17.26V11.792H14.128C14.128 9.536 13.708 7.868 12.868 6.788C12.028 5.708 10.732 5.168 8.98 5.168C6.268 5.168 4.912 6.452 4.912 9.02C4.912 9.86 5.08 10.532 5.416 11.036C5.752 11.54 6.304 12.008 7.072 12.44C7.864 12.872 8.932 13.388 10.276 13.988C12.292 14.9 13.9 15.752 15.1 16.544C16.3 17.336 17.152 18.176 17.656 19.064C18.184 19.928 18.448 20.948 18.448 22.124C18.448 23.732 18.052 25.076 17.26 26.156C16.468 27.236 15.4 28.052 14.056 28.604C12.736 29.132 11.248 29.396 9.592 29.396ZM40.1301 19.28C40.1301 20.816 39.9021 22.268 39.4461 23.636C39.0141 24.98 38.3781 26.108 37.5381 27.02C36.7461 27.86 35.7861 28.46 34.6581 28.82C33.5541 29.18 32.2581 29.36 30.7701 29.36C29.2821 29.36 27.9741 29.18 26.8461 28.82C25.7421 28.46 24.7941 27.86 24.0021 27.02C23.1621 26.108 22.5141 24.98 22.0581 23.636C21.6261 22.268 21.4101 20.816 21.4101 19.28C21.4101 17.744 21.6261 16.292 22.0581 14.924C22.5141 13.556 23.1621 12.428 24.0021 11.54C24.7941 10.7 25.7421 10.1 26.8461 9.74C27.9741 9.38 29.2821 9.2 30.7701 9.2C32.2581 9.2 33.5541 9.38 34.6581 9.74C35.7861 10.1 36.7461 10.7 37.5381 11.54C38.3781 12.428 39.0141 13.556 39.4461 14.924C39.9021 16.292 40.1301 17.744 40.1301 19.28ZM27.4941 25.508C27.8301 25.988 28.2621 26.348 28.7901 26.588C29.3421 26.828 30.0021 26.948 30.7701 26.948C31.5381 26.948 32.1981 26.828 32.7501 26.588C33.3021 26.348 33.7341 25.988 34.0461 25.508C34.8141 24.332 35.1981 22.256 35.1981 19.28C35.1981 17.768 35.1021 16.496 34.9101 15.464C34.7181 14.432 34.4301 13.628 34.0461 13.052C33.7341 12.572 33.3021 12.212 32.7501 11.972C32.1981 11.732 31.5381 11.612 30.7701 11.612C30.0021 11.612 29.3421 11.732 28.7901 11.972C28.2621 12.212 27.8301 12.572 27.4941 13.052C26.7261 14.228 26.3421 16.304 26.3421 19.28C26.3421 22.256 26.7261 24.332 27.4941 25.508ZM45.0171 26.264V3.656L42.2451 2.972V0.919999H49.5891V26.264L52.3611 26.948V29H42.2451V26.948L45.0171 26.264ZM53.8073 12.44V10.136L57.2993 9.632V8.66C57.2993 6.092 57.9953 4.1 59.3873 2.684C60.8033 1.268 62.6873 0.559999 65.0393 0.559999C66.4553 0.559999 67.5833 0.907999 68.4233 1.604C69.2873 2.276 69.7193 3.14 69.7193 4.196C69.7193 4.964 69.5153 5.564 69.1073 5.996C68.7233 6.404 68.1833 6.608 67.4873 6.608C66.7193 6.608 66.1193 6.416 65.6873 6.032C65.2793 5.648 65.0753 5.12 65.0753 4.448C65.0753 3.944 65.2673 3.5 65.6513 3.116C65.4113 2.684 65.0513 2.468 64.5713 2.468C64.1153 2.468 63.7313 2.564 63.4193 2.756C62.9153 3.092 62.5553 3.524 62.3393 4.052C62.1233 4.556 61.9913 5.132 61.9433 5.78C61.8953 6.404 61.8713 7.064 61.8713 7.76V9.56H66.4793V12.44H61.8713V26.3L65.7593 26.984V29H54.5273V26.984L57.2993 26.3V12.44H53.8073ZM79.0675 12.188C78.8035 12.188 78.5035 12.356 78.1675 12.692C77.8315 13.004 77.5195 13.376 77.2315 13.808C76.9675 14.24 76.7755 14.624 76.6555 14.96C76.3675 15.776 76.1155 16.616 75.8995 17.48C75.6835 18.344 75.5755 19.4 75.5755 20.648V26.3L79.4635 26.984V29H68.2315V26.984L71.0035 26.3V11.72L68.2315 11.036V9.56H74.4955L75.2875 14.312H75.4315C75.9835 12.68 76.7275 11.42 77.6635 10.532C78.5995 9.644 79.6315 9.2 80.7595 9.2C81.6955 9.2 82.4755 9.5 83.0995 10.1C83.7235 10.676 84.0355 11.456 84.0355 12.44C84.0355 13.16 83.8195 13.82 83.3875 14.42C82.9555 14.996 82.3435 15.284 81.5515 15.284C80.5915 15.284 79.9075 15.068 79.4995 14.636C79.0915 14.18 78.8875 13.688 78.8875 13.16C78.8875 12.992 78.8875 12.872 78.8875 12.8C78.9115 12.704 78.9715 12.5 79.0675 12.188ZM103.282 12.26L97.4863 28.136C96.6943 29.984 95.9743 31.472 95.3263 32.6C94.6783 33.752 93.9583 34.58 93.1663 35.084C92.3983 35.588 91.3903 35.84 90.1423 35.84C89.0143 35.84 88.0423 35.54 87.2263 34.94C86.4343 34.34 86.0383 33.584 86.0383 32.672C86.0383 31.832 86.2783 31.136 86.7583 30.584C87.2623 30.056 87.9103 29.792 88.7023 29.792C89.3983 29.792 89.9263 29.948 90.2863 30.26C90.6703 30.572 90.8623 31.04 90.8623 31.664C90.8623 31.904 90.7303 32.228 90.4663 32.636C90.2263 33.068 89.8063 33.284 89.2063 33.284C89.2543 33.524 89.3983 33.68 89.6383 33.752C89.8783 33.848 90.0823 33.896 90.2503 33.896C90.5863 33.896 90.8983 33.824 91.1863 33.68C91.4743 33.56 91.7743 33.26 92.0863 32.78C92.4223 32.3 92.7823 31.568 93.1663 30.584L93.5983 29.252L86.3623 12.26L84.2023 11.576V9.56H93.3463L93.6343 11.576L91.0783 12.26L95.5063 24.752H95.6503L99.6463 12.26L97.5583 11.576V9.56H105.478V11.576L103.282 12.26ZM106.595 19.316C106.595 17.732 106.811 16.256 107.243 14.888C107.699 13.496 108.299 12.38 109.043 11.54C109.739 10.772 110.567 10.196 111.527 9.812C112.487 9.404 113.567 9.2 114.767 9.2C115.895 9.2 116.891 9.404 117.755 9.812C118.619 10.22 119.399 10.952 120.095 12.008V3.62L117.323 2.936V0.919999H124.667V26.3L127.439 26.984V29L120.779 29.36L120.491 26.408C119.747 27.512 118.907 28.28 117.971 28.712C117.035 29.144 115.943 29.36 114.695 29.36C113.375 29.36 112.259 29.168 111.347 28.784C110.459 28.376 109.703 27.812 109.079 27.092C108.335 26.252 107.735 25.16 107.279 23.816C106.823 22.448 106.595 20.948 106.595 19.316ZM120.095 19.424C120.095 18.032 119.975 16.82 119.735 15.788C119.495 14.756 119.207 13.976 118.871 13.448C118.511 12.872 118.055 12.428 117.503 12.116C116.975 11.804 116.327 11.648 115.559 11.648C114.983 11.648 114.395 11.768 113.795 12.008C113.195 12.248 112.727 12.68 112.391 13.304C112.079 13.88 111.839 14.672 111.671 15.68C111.527 16.688 111.455 17.792 111.455 18.992C111.455 20.384 111.551 21.596 111.743 22.628C111.935 23.66 112.175 24.452 112.463 25.004C112.799 25.604 113.255 26.084 113.831 26.444C114.431 26.78 115.067 26.948 115.739 26.948C116.291 26.948 116.855 26.828 117.431 26.588C118.007 26.324 118.487 25.892 118.871 25.292C119.255 24.668 119.555 23.852 119.771 22.844C119.987 21.812 120.095 20.672 120.095 19.424Z" fill="#402E24"/>
</svg>
