<svg width="129" height="54" viewBox="0 0 129 54" fill="none" xmlns="http://www.w3.org/2000/svg">
<path d="M19.66 37.33C18.52 37.33 17.55 37.17 16.75 36.85C15.97 36.51 15.27 35.98 14.65 35.26L14.32 37H11.74V29.74H14.47C14.59 31.74 15.08 33.16 15.94 34C16.8 34.82 17.94 35.23 19.36 35.23C20.5 35.23 21.41 34.99 22.09 34.51C22.77 34.03 23.11 33.29 23.11 32.29C23.11 31.47 22.88 30.8 22.42 30.28C21.98 29.74 21.35 29.27 20.53 28.87C19.73 28.45 18.79 28.02 17.71 27.58C16.47 27.06 15.41 26.53 14.53 25.99C13.65 25.45 12.98 24.8 12.52 24.04C12.06 23.28 11.83 22.32 11.83 21.16C11.83 19.22 12.42 17.72 13.6 16.66C14.8 15.6 16.4 15.07 18.4 15.07C20.38 15.07 21.99 15.63 23.23 16.75L23.47 15.4H26.05V22.66H23.44C23.44 20.78 23.09 19.39 22.39 18.49C21.69 17.59 20.61 17.14 19.15 17.14C16.89 17.14 15.76 18.21 15.76 20.35C15.76 21.05 15.9 21.61 16.18 22.03C16.46 22.45 16.92 22.84 17.56 23.2C18.22 23.56 19.11 23.99 20.23 24.49C21.91 25.25 23.25 25.96 24.25 26.62C25.25 27.28 25.96 27.98 26.38 28.72C26.82 29.44 27.04 30.29 27.04 31.27C27.04 32.61 26.71 33.73 26.05 34.63C25.39 35.53 24.5 36.21 23.38 36.67C22.28 37.11 21.04 37.33 19.66 37.33ZM45.1084 28.9C45.1084 30.18 44.9184 31.39 44.5384 32.53C44.1784 33.65 43.6484 34.59 42.9484 35.35C42.2884 36.05 41.4884 36.55 40.5484 36.85C39.6284 37.15 38.5484 37.3 37.3084 37.3C36.0684 37.3 34.9784 37.15 34.0384 36.85C33.1184 36.55 32.3284 36.05 31.6684 35.35C30.9684 34.59 30.4284 33.65 30.0484 32.53C29.6884 31.39 29.5084 30.18 29.5084 28.9C29.5084 27.62 29.6884 26.41 30.0484 25.27C30.4284 24.13 30.9684 23.19 31.6684 22.45C32.3284 21.75 33.1184 21.25 34.0384 20.95C34.9784 20.65 36.0684 20.5 37.3084 20.5C38.5484 20.5 39.6284 20.65 40.5484 20.95C41.4884 21.25 42.2884 21.75 42.9484 22.45C43.6484 23.19 44.1784 24.13 44.5384 25.27C44.9184 26.41 45.1084 27.62 45.1084 28.9ZM34.5784 34.09C34.8584 34.49 35.2184 34.79 35.6584 34.99C36.1184 35.19 36.6684 35.29 37.3084 35.29C37.9484 35.29 38.4984 35.19 38.9584 34.99C39.4184 34.79 39.7784 34.49 40.0384 34.09C40.6784 33.11 40.9984 31.38 40.9984 28.9C40.9984 27.64 40.9184 26.58 40.7584 25.72C40.5984 24.86 40.3584 24.19 40.0384 23.71C39.7784 23.31 39.4184 23.01 38.9584 22.81C38.4984 22.61 37.9484 22.51 37.3084 22.51C36.6684 22.51 36.1184 22.61 35.6584 22.81C35.2184 23.01 34.8584 23.31 34.5784 23.71C33.9384 24.69 33.6184 26.42 33.6184 28.9C33.6184 31.38 33.9384 33.11 34.5784 34.09ZM49.1809 34.72V15.88L46.8709 15.31V13.6H52.9909V34.72L55.3009 35.29V37H46.8709V35.29L49.1809 34.72ZM56.5061 23.2V21.28L59.4161 20.86V20.05C59.4161 17.91 59.9961 16.25 61.1561 15.07C62.3361 13.89 63.9061 13.3 65.8661 13.3C67.0461 13.3 67.9861 13.59 68.6861 14.17C69.4061 14.73 69.7661 15.45 69.7661 16.33C69.7661 16.97 69.5961 17.47 69.2561 17.83C68.9361 18.17 68.4861 18.34 67.9061 18.34C67.2661 18.34 66.7661 18.18 66.4061 17.86C66.0661 17.54 65.8961 17.1 65.8961 16.54C65.8961 16.12 66.0561 15.75 66.3761 15.43C66.1761 15.07 65.8761 14.89 65.4761 14.89C65.0961 14.89 64.7761 14.97 64.5161 15.13C64.0961 15.41 63.7961 15.77 63.6161 16.21C63.4361 16.63 63.3261 17.11 63.2861 17.65C63.2461 18.17 63.2261 18.72 63.2261 19.3V20.8H67.0661V23.2H63.2261V34.75L66.4661 35.32V37H57.1061V35.32L59.4161 34.75V23.2H56.5061ZM77.5563 22.99C77.3363 22.99 77.0863 23.13 76.8063 23.41C76.5263 23.67 76.2663 23.98 76.0263 24.34C75.8063 24.7 75.6463 25.02 75.5463 25.3C75.3063 25.98 75.0963 26.68 74.9163 27.4C74.7363 28.12 74.6463 29 74.6463 30.04V34.75L77.8863 35.32V37H68.5263V35.32L70.8363 34.75V22.6L68.5263 22.03V20.8H73.7463L74.4063 24.76H74.5263C74.9863 23.4 75.6063 22.35 76.3863 21.61C77.1663 20.87 78.0263 20.5 78.9663 20.5C79.7463 20.5 80.3963 20.75 80.9163 21.25C81.4363 21.73 81.6963 22.38 81.6963 23.2C81.6963 23.8 81.5163 24.35 81.1563 24.85C80.7963 25.33 80.2863 25.57 79.6263 25.57C78.8263 25.57 78.2563 25.39 77.9163 25.03C77.5763 24.65 77.4063 24.24 77.4063 23.8C77.4063 23.66 77.4063 23.56 77.4063 23.5C77.4263 23.42 77.4763 23.25 77.5563 22.99ZM97.7352 23.05L92.9052 36.28C92.2452 37.82 91.6452 39.06 91.1052 40C90.5652 40.96 89.9652 41.65 89.3052 42.07C88.6652 42.49 87.8252 42.7 86.7852 42.7C85.8452 42.7 85.0352 42.45 84.3552 41.95C83.6952 41.45 83.3652 40.82 83.3652 40.06C83.3652 39.36 83.5652 38.78 83.9652 38.32C84.3852 37.88 84.9252 37.66 85.5852 37.66C86.1652 37.66 86.6052 37.79 86.9052 38.05C87.2252 38.31 87.3852 38.7 87.3852 39.22C87.3852 39.42 87.2752 39.69 87.0552 40.03C86.8552 40.39 86.5052 40.57 86.0052 40.57C86.0452 40.77 86.1652 40.9 86.3652 40.96C86.5652 41.04 86.7352 41.08 86.8752 41.08C87.1552 41.08 87.4152 41.02 87.6552 40.9C87.8952 40.8 88.1452 40.55 88.4052 40.15C88.6852 39.75 88.9852 39.14 89.3052 38.32L89.6652 37.21L83.6352 23.05L81.8352 22.48V20.8H89.4552L89.6952 22.48L87.5652 23.05L91.2552 33.46H91.3752L94.7052 23.05L92.9652 22.48V20.8H99.5652V22.48L97.7352 23.05ZM100.495 28.93C100.495 27.61 100.675 26.38 101.035 25.24C101.415 24.08 101.915 23.15 102.535 22.45C103.115 21.81 103.805 21.33 104.605 21.01C105.405 20.67 106.305 20.5 107.305 20.5C108.245 20.5 109.075 20.67 109.795 21.01C110.515 21.35 111.165 21.96 111.745 22.84V15.85L109.435 15.28V13.6H115.555V34.75L117.865 35.32V37L112.315 37.3L112.075 34.84C111.455 35.76 110.755 36.4 109.975 36.76C109.195 37.12 108.285 37.3 107.245 37.3C106.145 37.3 105.215 37.14 104.455 36.82C103.715 36.48 103.085 36.01 102.565 35.41C101.945 34.71 101.445 33.8 101.065 32.68C100.685 31.54 100.495 30.29 100.495 28.93ZM111.745 29.02C111.745 27.86 111.645 26.85 111.445 25.99C111.245 25.13 111.005 24.48 110.725 24.04C110.425 23.56 110.045 23.19 109.585 22.93C109.145 22.67 108.605 22.54 107.965 22.54C107.485 22.54 106.995 22.64 106.495 22.84C105.995 23.04 105.605 23.4 105.325 23.92C105.065 24.4 104.865 25.06 104.725 25.9C104.605 26.74 104.545 27.66 104.545 28.66C104.545 29.82 104.625 30.83 104.785 31.69C104.945 32.55 105.145 33.21 105.385 33.67C105.665 34.17 106.045 34.57 106.525 34.87C107.025 35.15 107.555 35.29 108.115 35.29C108.575 35.29 109.045 35.19 109.525 34.99C110.005 34.77 110.405 34.41 110.725 33.91C111.045 33.39 111.295 32.71 111.475 31.87C111.655 31.01 111.745 30.06 111.745 29.02Z" fill="#402E24"/>
</svg>
