<svg width="213" height="60" viewBox="0 0 213 60" fill="none" xmlns="http://www.w3.org/2000/svg">
<path d="M16.32 48.66C14.04 48.66 12.1 48.34 10.5 47.7C8.94 47.02 7.54 45.96 6.3 44.52L5.64 48H0.48V33.48H5.94C6.18 37.48 7.16 40.32 8.88 42C10.6 43.64 12.88 44.46 15.72 44.46C18 44.46 19.82 43.98 21.18 43.02C22.54 42.06 23.22 40.58 23.22 38.58C23.22 36.94 22.76 35.6 21.84 34.56C20.96 33.48 19.7 32.54 18.06 31.74C16.46 30.9 14.58 30.04 12.42 29.16C9.94 28.12 7.82 27.06 6.06 25.98C4.3 24.9 2.96 23.6 2.04 22.08C1.12 20.56 0.66 18.64 0.66 16.32C0.66 12.44 1.84 9.44 4.2 7.32C6.6 5.2 9.8 4.14 13.8 4.14C17.76 4.14 20.98 5.26 23.46 7.5L23.94 4.8H29.1V19.32H23.88C23.88 15.56 23.18 12.78 21.78 10.98C20.38 9.18 18.22 8.28 15.3 8.28C10.78 8.28 8.52 10.42 8.52 14.7C8.52 16.1 8.8 17.22 9.36 18.06C9.92 18.9 10.84 19.68 12.12 20.4C13.44 21.12 15.22 21.98 17.46 22.98C20.82 24.5 23.5 25.92 25.5 27.24C27.5 28.56 28.92 29.96 29.76 31.44C30.64 32.88 31.08 34.58 31.08 36.54C31.08 39.22 30.42 41.46 29.1 43.26C27.78 45.06 26 46.42 23.76 47.34C21.56 48.22 19.08 48.66 16.32 48.66ZM67.2169 31.8C67.2169 34.36 66.8369 36.78 66.0769 39.06C65.3569 41.3 64.2969 43.18 62.8969 44.7C61.5769 46.1 59.9769 47.1 58.0969 47.7C56.2569 48.3 54.0969 48.6 51.6169 48.6C49.1369 48.6 46.9569 48.3 45.0769 47.7C43.2369 47.1 41.6569 46.1 40.3369 44.7C38.9369 43.18 37.8569 41.3 37.0969 39.06C36.3769 36.78 36.0169 34.36 36.0169 31.8C36.0169 29.24 36.3769 26.82 37.0969 24.54C37.8569 22.26 38.9369 20.38 40.3369 18.9C41.6569 17.5 43.2369 16.5 45.0769 15.9C46.9569 15.3 49.1369 15 51.6169 15C54.0969 15 56.2569 15.3 58.0969 15.9C59.9769 16.5 61.5769 17.5 62.8969 18.9C64.2969 20.38 65.3569 22.26 66.0769 24.54C66.8369 26.82 67.2169 29.24 67.2169 31.8ZM46.1569 42.18C46.7169 42.98 47.4369 43.58 48.3169 43.98C49.2369 44.38 50.3369 44.58 51.6169 44.58C52.8969 44.58 53.9969 44.38 54.9169 43.98C55.8369 43.58 56.5569 42.98 57.0769 42.18C58.3569 40.22 58.9969 36.76 58.9969 31.8C58.9969 29.28 58.8369 27.16 58.5169 25.44C58.1969 23.72 57.7169 22.38 57.0769 21.42C56.5569 20.62 55.8369 20.02 54.9169 19.62C53.9969 19.22 52.8969 19.02 51.6169 19.02C50.3369 19.02 49.2369 19.22 48.3169 19.62C47.4369 20.02 46.7169 20.62 46.1569 21.42C44.8769 23.38 44.2369 26.84 44.2369 31.8C44.2369 36.76 44.8769 40.22 46.1569 42.18ZM75.3619 43.44V5.76L70.7419 4.62V1.2H82.9819V43.44L87.6019 44.58V48H70.7419V44.58L75.3619 43.44ZM90.0122 20.4V16.56L95.8322 15.72V14.1C95.8322 9.82 96.9922 6.5 99.3122 4.14C101.672 1.78 104.812 0.599999 108.732 0.599999C111.092 0.599999 112.972 1.18 114.372 2.34C115.812 3.46 116.532 4.9 116.532 6.66C116.532 7.94 116.192 8.94 115.512 9.66C114.872 10.34 113.972 10.68 112.812 10.68C111.532 10.68 110.532 10.36 109.812 9.72C109.132 9.08 108.792 8.2 108.792 7.08C108.792 6.24 109.112 5.5 109.752 4.86C109.352 4.14 108.752 3.78 107.952 3.78C107.192 3.78 106.552 3.94 106.032 4.26C105.192 4.82 104.592 5.54 104.232 6.42C103.872 7.26 103.652 8.22 103.572 9.3C103.492 10.34 103.452 11.44 103.452 12.6V15.6H111.132V20.4H103.452V43.5L109.932 44.64V48H91.2122V44.64L95.8322 43.5V20.4H90.0122ZM132.113 19.98C131.673 19.98 131.173 20.26 130.613 20.82C130.053 21.34 129.533 21.96 129.053 22.68C128.613 23.4 128.293 24.04 128.093 24.6C127.613 25.96 127.193 27.36 126.833 28.8C126.473 30.24 126.293 32 126.293 34.08V43.5L132.773 44.64V48H114.053V44.64L118.673 43.5V19.2L114.053 18.06V15.6H124.493L125.813 23.52H126.053C126.973 20.8 128.213 18.7 129.773 17.22C131.333 15.74 133.053 15 134.933 15C136.493 15 137.793 15.5 138.833 16.5C139.873 17.46 140.393 18.76 140.393 20.4C140.393 21.6 140.033 22.7 139.313 23.7C138.593 24.66 137.573 25.14 136.253 25.14C134.653 25.14 133.513 24.78 132.833 24.06C132.153 23.3 131.813 22.48 131.813 21.6C131.813 21.32 131.813 21.12 131.813 21C131.853 20.84 131.953 20.5 132.113 19.98ZM172.47 20.1L162.81 46.56C161.49 49.64 160.29 52.12 159.21 54C158.13 55.92 156.93 57.3 155.61 58.14C154.33 58.98 152.65 59.4 150.57 59.4C148.69 59.4 147.07 58.9 145.71 57.9C144.39 56.9 143.73 55.64 143.73 54.12C143.73 52.72 144.13 51.56 144.93 50.64C145.77 49.76 146.85 49.32 148.17 49.32C149.33 49.32 150.21 49.58 150.81 50.1C151.45 50.62 151.77 51.4 151.77 52.44C151.77 52.84 151.55 53.38 151.11 54.06C150.71 54.78 150.01 55.14 149.01 55.14C149.09 55.54 149.33 55.8 149.73 55.92C150.13 56.08 150.47 56.16 150.75 56.16C151.31 56.16 151.83 56.04 152.31 55.8C152.79 55.6 153.29 55.1 153.81 54.3C154.37 53.5 154.97 52.28 155.61 50.64L156.33 48.42L144.27 20.1L140.67 18.96V15.6H155.91L156.39 18.96L152.13 20.1L159.51 40.92H159.75L166.41 20.1L162.93 18.96V15.6H176.13V18.96L172.47 20.1ZM177.991 31.86C177.991 29.22 178.351 26.76 179.071 24.48C179.831 22.16 180.831 20.3 182.071 18.9C183.231 17.62 184.611 16.66 186.211 16.02C187.811 15.34 189.611 15 191.611 15C193.491 15 195.151 15.34 196.591 16.02C198.031 16.7 199.331 17.92 200.491 19.68V5.7L195.871 4.56V1.2H208.111V43.5L212.731 44.64V48L201.631 48.6L201.151 43.68C199.911 45.52 198.511 46.8 196.951 47.52C195.391 48.24 193.571 48.6 191.491 48.6C189.291 48.6 187.431 48.28 185.911 47.64C184.431 46.96 183.171 46.02 182.131 44.82C180.891 43.42 179.891 41.6 179.131 39.36C178.371 37.08 177.991 34.58 177.991 31.86ZM200.491 32.04C200.491 29.72 200.291 27.7 199.891 25.98C199.491 24.26 199.011 22.96 198.451 22.08C197.851 21.12 197.091 20.38 196.171 19.86C195.291 19.34 194.211 19.08 192.931 19.08C191.971 19.08 190.991 19.28 189.991 19.68C188.991 20.08 188.211 20.8 187.651 21.84C187.131 22.8 186.731 24.12 186.451 25.8C186.211 27.48 186.091 29.32 186.091 31.32C186.091 33.64 186.251 35.66 186.571 37.38C186.891 39.1 187.291 40.42 187.771 41.34C188.331 42.34 189.091 43.14 190.051 43.74C191.051 44.3 192.111 44.58 193.231 44.58C194.151 44.58 195.091 44.38 196.051 43.98C197.011 43.54 197.811 42.82 198.451 41.82C199.091 40.78 199.591 39.42 199.951 37.74C200.311 36.02 200.491 34.12 200.491 32.04Z" fill="#402E24"/>
</svg>
